<?xml version="1.0" encoding="UTF-8" standalone="no"?>
<!-- Created with Inkscape (http://www.inkscape.org/) -->

<svg
   xmlns:dc="http://purl.org/dc/elements/1.1/"
   xmlns:cc="http://creativecommons.org/ns#"
   xmlns:rdf="http://www.w3.org/1999/02/22-rdf-syntax-ns#"
   xmlns:svg="http://www.w3.org/2000/svg"
   xmlns="http://www.w3.org/2000/svg"
   xmlns:sodipodi="http://sodipodi.sourceforge.net/DTD/sodipodi-0.dtd"
   xmlns:inkscape="http://www.inkscape.org/namespaces/inkscape"
   version="1.1"
   id="svg2"
   xml:space="preserve"
   width="309.02667"
   height="161.38667"
   viewBox="0 0 309.02667 161.38667"
   sodipodi:docname="COLLABORA_logo.svg"
   inkscape:version="0.92.2 (5c3e80d, 2017-08-06)"><metadata
     id="metadata8"><rdf:RDF><cc:Work
         rdf:about=""><dc:format>image/svg+xml</dc:format><dc:type
           rdf:resource="http://purl.org/dc/dcmitype/StillImage" /><dc:title></dc:title></cc:Work></rdf:RDF></metadata><defs
     id="defs6" /><sodipodi:namedview
     pagecolor="#ffffff"
     bordercolor="#666666"
     borderopacity="1"
     objecttolerance="10"
     gridtolerance="10"
     guidetolerance="10"
     inkscape:pageopacity="0"
     inkscape:pageshadow="2"
     inkscape:window-width="824"
     inkscape:window-height="480"
     id="namedview4"
     showgrid="false"
     inkscape:zoom="1.1487682"
     inkscape:cx="154.51334"
     inkscape:cy="80.693336"
     inkscape:window-x="380"
     inkscape:window-y="101"
     inkscape:window-maximized="0"
     inkscape:current-layer="g10" /><g
     id="g10"
     inkscape:groupmode="layer"
     inkscape:label="ink_ext_XXXXXX"
     transform="matrix(1.3333333,0,0,-1.3333333,0,161.38667)"><g
       id="g12"
       transform="scale(0.1)"><path
         d="m 1180.98,1210.44 c -185.66,0 -336.152,-150.52 -336.152,-336.143 0,-185.672 150.492,-336.176 336.152,-336.176 185.65,0 336.13,150.504 336.13,336.176 0,185.623 -150.48,336.143 -336.13,336.143 m 0,-552.475 c -119.47,0 -216.328,96.84 -216.328,216.305 0,119.46 96.858,216.33 216.328,216.33 119.45,0 216.33,-96.87 216.33,-216.33 0,-119.465 -96.88,-216.305 -216.33,-216.305"
         style="fill:#5e398d;fill-opacity:1;fill-rule:nonzero;stroke:none"
         id="path14"
         inkscape:connector-curvature="0" /><path
         d="m 649.848,1046.58 -84.922,-84.939 94.722,-89.266 -93.972,-88.566 84.887,-84.903 173.468,173.469 -174.183,174.205"
         style="fill:#5e398d;fill-opacity:1;fill-rule:nonzero;stroke:none"
         id="path16"
         inkscape:connector-curvature="0" /><path
         d="m 337.555,534.332 c -83.793,0 -159.817,29.082 -225.895,86.563 C 37.5352,685.656 0,771.035 0,874.609 c 0,91.954 34.0039,171.821 101.039,237.411 66.359,65.28 147.352,98.41 240.617,98.41 92.52,0 172.973,-33.5 239.008,-99.52 l -87.699,-87.71 c -42.555,42.52 -92.035,63.21 -151.309,63.21 -60.41,0 -110.703,-20.6 -153.765,-62.92 -42.981,-42.092 -63.852,-90.763 -63.852,-148.881 0,-67.136 22.633,-119.539 69.106,-160.144 43.382,-37.707 90.625,-56.11 144.41,-56.11 61.414,0 112.324,20.543 155.652,62.77 l 86.594,-88.844 c -66.703,-65 -148.203,-97.949 -242.246,-97.949"
         style="fill:#d3d5d7;fill-opacity:1;fill-rule:nonzero;stroke:none"
         id="path18"
         inkscape:connector-curvature="0" /><path
         d="m 404.863,34.2891 c 36.114,0 71.657,25.5898 71.657,77.0699 0,51.512 -35.543,77.09 -71.657,77.09 -35.824,0 -71.347,-25.578 -71.347,-77.09 0,-51.4801 35.523,-77.0699 71.347,-77.0699 m 0,188.1679 c 56,0 108.672,-41.207 108.672,-111.098 C 513.535,41.2305 460.863,0 404.863,0 348.879,0 296.477,41.2305 296.477,111.359 c 0,69.891 52.402,111.098 108.386,111.098"
         style="fill:#5e398d;fill-opacity:1;fill-rule:nonzero;stroke:none"
         id="path20"
         inkscape:connector-curvature="0" /><path
         d="M 602.457,4.48828 V 217.965 h 36.121 V 38.8203 H 736.43 V 4.48828 H 602.457"
         style="fill:#5e398d;fill-opacity:1;fill-rule:nonzero;stroke:none"
         id="path22"
         inkscape:connector-curvature="0" /><path
         d="M 820.191,4.48828 V 217.965 h 36.125 V 38.8203 h 97.86 V 4.48828 H 820.191"
         style="fill:#5e398d;fill-opacity:1;fill-rule:nonzero;stroke:none"
         id="path24"
         inkscape:connector-curvature="0" /><path
         d="m 1099.61,91.5 h 65.02 l -32.52,87.301 z m 77.66,-33.3984 h -90.31 L 1067.1,4.51172 h -38.25 l 83.08,213.43328 h 41.86 L 1236.88,4.51172 h -39.43 l -20.18,53.58988"
         style="fill:#5e398d;fill-opacity:1;fill-rule:nonzero;stroke:none"
         id="path26"
         inkscape:connector-curvature="0" /><path
         d="m 1403.05,35.2109 c 21.7,0 35.84,11.7188 35.84,30.6993 0,18.3593 -12.36,31.3086 -34.63,31.3086 h -37.93 V 35.2109 Z m -3.9,92.4181 c 21.07,0 33.73,12.051 33.73,29.812 0,18.059 -12.66,29.821 -34.63,29.821 h -31.92 v -59.633 z m 4.82,90.336 c 40.96,0 65.02,-24.106 65.02,-57.504 0,-22.59 -13.26,-39.449 -31.6,-46.07 22.58,-6.02 38.22,-25.5902 38.22,-50.9027 0,-34.3086 -26.48,-59.00002 -66.21,-59.00002 h -78.89 V 217.965 h 73.46"
         style="fill:#5e398d;fill-opacity:1;fill-rule:nonzero;stroke:none"
         id="path28"
         inkscape:connector-curvature="0" /><path
         d="m 1673.72,34.2891 c 36.11,0 71.64,25.5898 71.64,77.0699 0,51.512 -35.53,77.09 -71.64,77.09 -35.84,0 -71.35,-25.578 -71.35,-77.09 0,-51.4801 35.51,-77.0699 71.35,-77.0699 m 0,188.1679 c 55.99,0 108.69,-41.207 108.69,-111.098 C 1782.41,41.2305 1729.71,0 1673.72,0 c -56.02,0 -108.4,41.2305 -108.4,111.359 0,69.891 52.38,111.098 108.4,111.098"
         style="fill:#5e398d;fill-opacity:1;fill-rule:nonzero;stroke:none"
         id="path30"
         inkscape:connector-curvature="0" /><path
         d="m 2180.43,91.5 h 65.02 l -32.5,87.301 z m 77.68,-33.3984 h -90.33 L 2147.92,4.51172 h -38.27 l 83.09,213.43328 h 41.85 L 2317.7,4.51172 h -39.43 l -20.16,53.58988"
         style="fill:#5e398d;fill-opacity:1;fill-rule:nonzero;stroke:none"
         id="path32"
         inkscape:connector-curvature="0" /><path
         d="M 185.059,79.5898 C 173.801,49.3711 146.508,34.2891 118.844,34.2891 c -35.8245,0 -71.3635,25.5898 -71.3635,77.0699 0,51.512 35.539,77.09 71.3635,77.09 27.761,0 55.109,-15.168 66.32,-45.578 h 38.441 C 210.43,193.449 165.816,222.457 118.844,222.457 62.8516,222.457 10.4531,181.23 10.4531,111.359 10.4531,41.2305 62.8516,0 118.844,0 c 46.91,0 91.472,28.9414 104.715,79.5898 h -38.5"
         style="fill:#5e398d;fill-opacity:1;fill-rule:nonzero;stroke:none"
         id="path34"
         inkscape:connector-curvature="0" /><path
         d="m 1959.18,119.078 c 22.27,0 35.2,12.973 35.2,32.5 0,19.902 -14.45,32.832 -36.72,32.832 h -41.89 v -65.332 z m -12.36,-31.9178 h -31.05 V 2.87109 h -36.43 V 216.324 h 84.94 c 41.23,0 66.84,-28.594 66.84,-64.746 0,-30.387 -16.86,-53.578 -46.66,-60.8163 l 51.21,-87.89061 h -40.94 l -47.91,84.28911"
         style="fill:#5e398d;fill-opacity:1;fill-rule:nonzero;stroke:none"
         id="path36"
         inkscape:connector-curvature="0" /></g></g></svg>