<svg id="Layer_1" data-name="Layer 1" xmlns="http://www.w3.org/2000/svg" xmlns:xlink="http://www.w3.org/1999/xlink" viewBox="0 0 1160 255">
  <defs>
    <radialGradient id="radial-gradient" cx="2273.2" cy="-419.31" r="44.44" gradientTransform="translate(-876.74 368.25) scale(0.5)" gradientUnits="userSpaceOnUse">
      <stop offset="0.77" stop-color="#ffd300"/>
      <stop offset="1" stop-color="#ffa900"/>
    </radialGradient>
    <radialGradient id="radial-gradient-2" cx="2188.76" cy="-358.09" r="23.98" xlink:href="#radial-gradient"/>
  </defs>
  <title>foundries.io-Logo</title>
  <g>
    <g>
      <path d="M138.73,110.14C124.23,95.63,106.82,90.45,90.37,92a65.77,65.77,0,0,0-51.2,34.48c-7.63,14.65-9.38,32.71-1.38,51.59,0,.11.08.17.38.85A62.22,62.22,0,0,0,72,211.54a60.51,60.51,0,0,0,46.16-.1c26.57-11.26,46-36.7,62.45-59.43,22-30.4,44.6-59.22,78.36-59.22,21.38,0,37.21,8.56,48.42,21.81a67.71,67.71,0,0,1,13.29,64c-5.16,16.58-17,29.63-36.65,38a66.31,66.31,0,0,1-25.51,5.16l-84.31-.24V214l84.31.24a58.81,58.81,0,0,0,11.57-1.14,57.56,57.56,0,0,0,11.05-3.41c17.45-7.39,27.56-18.62,32.11-33.24a61.38,61.38,0,0,0-11.55-57C291.86,107.75,278,100.25,259,100.25c-29.89,0-51.49,27.32-72.32,56.13-17.47,24.16-37.34,50-65.59,61.93a68,68,0,0,1-51.84.14A69.65,69.65,0,0,1,31.34,182c0-.08-.11-.25-.41-1-8.95-21.16-7-41.44,1.61-57.93A73.32,73.32,0,0,1,89.67,84.6c18.54-1.77,38.11,4,54.34,20.25Z" style="fill: #b3b3b3;fill-rule: evenodd"/>
      <path d="M133.56,115.19c-12.81-12.83-28.19-17.41-42.73-16a58.15,58.15,0,0,0-45.26,30.48c-6.74,12.95-8.27,28.89-1.21,45.59A54.1,54.1,0,0,0,74.1,204.36a55.58,55.58,0,0,0,42.1,0c24.85-10.26,40.84-32.41,57-54.81,16.4-22.69,33-45.64,59.36-58a65.72,65.72,0,0,1,23-6.1,66.44,66.44,0,0,1,40.52,10.39,75.1,75.1,0,0,1,27.84,31.72,74,74,0,0,1,6.8,25.84c.06.7.1,1.54.14,2.53A69,69,0,0,1,312.2,205.6c-14.68,15.88-29.52,21-50.38,23.33H174.23v-7.47h87.59a65,65,0,0,0,44.92-20.93,61.68,61.68,0,0,0,16.67-44.32c0-.58-.07-1.32-.13-2.23a67.15,67.15,0,0,0-6.1-23.24,67.89,67.89,0,0,0-25.08-28.57,57.79,57.79,0,0,0-56.38-3.84c-24.64,11.5-40.64,33.66-56.46,55.58-16.8,23.25-33.42,46.26-60.23,57.35a63.11,63.11,0,0,1-47.74,0,61.66,61.66,0,0,1-33.8-33.16c-8-19-6.24-37.15,1.46-51.92A65.59,65.59,0,0,1,90.13,91.76c16.64-1.6,34.17,3.59,48.71,18.14Z" style="fill: #b3b3b3;fill-rule: evenodd"/>
      <path d="M246.16,94.58a89.76,89.76,0,0,0-5.65-19.52,68.06,68.06,0,0,0-14.57-21.59,68.61,68.61,0,0,0-10.13-8.36,67.53,67.53,0,0,0-11.49-6.23,66.54,66.54,0,0,0-12.94-4,69.08,69.08,0,0,0-27.08,0,66.87,66.87,0,0,0-12.93,4,67.28,67.28,0,0,0-21.6,14.59,66.77,66.77,0,0,0-8.35,10.11,69.43,69.43,0,0,0-6.25,11.48,69.25,69.25,0,0,0-2.36,6.83c-.85,2.91-2.21,9-2.7,11.33l-5.75-8.41c2.28-9.06,5.12-16.88,10.86-25.41A75.75,75.75,0,0,1,135.7,38.93,74.4,74.4,0,0,1,148.48,32,75.44,75.44,0,0,1,220,38.93a76.77,76.77,0,0,1,11.23,9.24,75.5,75.5,0,0,1,16.15,24,84.77,84.77,0,0,1,3.39,9.33c.47,1.59.76,2.75,1.13,4.36Z" style="fill: #b3b3b3;fill-rule: evenodd"/>
      <path d="M237.51,89.51c-.56-2.34-1.16-4.55-1.94-6.82A60.16,60.16,0,0,0,207.85,48.9,63.21,63.21,0,0,0,177.16,41a61.24,61.24,0,0,0-30.38,7.85A56.91,56.91,0,0,0,121,80.46a77.62,77.62,0,0,0-2.19,7.92l-8.7,4.84a135.38,135.38,0,0,1,3.59-14.34C119.24,62,130,49.82,143.11,42.36a68.81,68.81,0,0,1,34-8.82,70.7,70.7,0,0,1,34.29,8.85c15.18,8.47,27.52,23,32.82,43.45.11.43,1.8,8.3,1.91,8.73Z" style="fill: #b3b3b3;fill-rule: evenodd"/>
    </g>
    <g>
      <path d="M259.59,144.8a13.32,13.32,0,0,0-.61,26.61,11.88,11.88,0,1,1,1.22,0,13.32,13.32,0,0,0-.61-26.61Z" style="fill: #b3b3b3"/>
      <path d="M285.5,155l3.38-4.38s-5.6-1.67-6.23-2.78L278,148h0a23,23,0,0,0-4.92-5.12l.23-4.76a26.71,26.71,0,0,0-6.94-3l-3.16,3.51a21.9,21.9,0,0,0-7,0h0l-3.12-3.53a26.08,26.08,0,0,0-3.59,1.2,26.88,26.88,0,0,0-3.39,1.71l.18,4.77h0a23.15,23.15,0,0,0-5,5.05l-10.93,2.46,3.37,4.42,3.41,3.23h0a23.66,23.66,0,0,0,0,7.18h0l-3.45,3.2a28.55,28.55,0,0,1-.17,5.45l3,1.71,4.65-.19h0a23,23,0,0,0,4.92,5.11l5.82,7.71.89.05,3.16-3.5a21.9,21.9,0,0,0,7,0l3.12,3.53.84,0s5.06-2.23,6.14-2.87l-.18-4.77h0a23.15,23.15,0,0,0,5-5.05l4.64.24,3-1.67L282,165.35h0a24,24,0,0,0,0-7.18h0Zm-25.91,16.46a13.32,13.32,0,1,1,13-13.31A13.15,13.15,0,0,1,259.59,171.43Z" style="fill: #b3b3b3"/>
      <path d="M284.93,162.33a26.62,26.62,0,0,0,.05-8.12h0l3.9-3.61a34,34,0,0,0-1.32-4.16,32.4,32.4,0,0,0-1.9-3.93l-5.24.2h0a25.69,25.69,0,0,0-5.56-5.78l.26-5.38a29.79,29.79,0,0,0-7.84-3.39l-3.57,4a24.75,24.75,0,0,0-7.92-.05h0l-3.52-4a30.19,30.19,0,0,0-4.06,1.35,29.29,29.29,0,0,0-3.83,2l.2,5.38h0a26.27,26.27,0,0,0-5.63,5.71l-5.25-.28a31.31,31.31,0,0,0-3.3,8.06l3.85,3.66h0a26.94,26.94,0,0,0,0,8.12h0l-3.9,3.62a30.88,30.88,0,0,0,1.33,4.16,32.29,32.29,0,0,0,1.88,3.93l5.25-.21h0a25.64,25.64,0,0,0,5.56,5.77l-.27,5.39a30.19,30.19,0,0,0,7.85,3.39l3.57-4a24.75,24.75,0,0,0,7.92,0l3.52,4A31.21,31.21,0,0,0,271,186.8a30.48,30.48,0,0,0,3.83-1.93l-.2-5.39h0a26,26,0,0,0,5.63-5.7l5.25.27a31.81,31.81,0,0,0,3.3-8l-3.85-3.67Zm-25.34,9.1a13.32,13.32,0,1,1,13-13.31A13.15,13.15,0,0,1,259.59,171.43Z" style="fill: #b3b3b3"/>
      <path d="M284.93,162.33a26.62,26.62,0,0,0,.05-8.12h0l3.9-3.61a34,34,0,0,0-1.32-4.16,32.4,32.4,0,0,0-1.9-3.93l-5.24.2h0a25.69,25.69,0,0,0-5.56-5.78l.26-5.38a29.79,29.79,0,0,0-7.84-3.39l-3.57,4a24.75,24.75,0,0,0-7.92-.05h0l-3.52-4a30.19,30.19,0,0,0-4.06,1.35,29.29,29.29,0,0,0-3.83,2l.2,5.38h0a26.27,26.27,0,0,0-5.63,5.71l-5.25-.28a31.31,31.31,0,0,0-3.3,8.06l3.85,3.66h0a26.94,26.94,0,0,0,0,8.12h0l-3.9,3.62a30.88,30.88,0,0,0,1.33,4.16,32.29,32.29,0,0,0,1.88,3.93l5.25-.21h0a25.64,25.64,0,0,0,5.56,5.77l-.27,5.39a30.19,30.19,0,0,0,7.85,3.39l3.57-4a24.75,24.75,0,0,0,7.92,0l3.52,4A31.21,31.21,0,0,0,271,186.8a30.48,30.48,0,0,0,3.83-1.93l-.2-5.39h0a26,26,0,0,0,5.63-5.7l5.25.27a31.81,31.81,0,0,0,3.3-8l-3.85-3.67Zm-25.34,9.1a13.32,13.32,0,1,1,13-13.31A13.15,13.15,0,0,1,259.59,171.43Z" style="fill: #b3b3b3"/>
      <path d="M259.59,143.46a14.66,14.66,0,1,0,14.28,14.66A14.48,14.48,0,0,0,259.59,143.46Zm0,28a13.32,13.32,0,1,1,13-13.31A13.15,13.15,0,0,1,259.59,171.43Z" style="fill: #b3b3b3"/>
    </g>
    <g>
      <path d="M217.71,182.44a7.13,7.13,0,0,0-.33,14.24,6.37,6.37,0,1,1,.65,0,7.13,7.13,0,0,0-.32-14.24Z" style="fill: #b3b3b3"/>
      <path d="M231.57,187.88l1.81-2.34s-3-.9-3.33-1.49l-2.49.1h0a12,12,0,0,0-2.63-2.73l.13-2.55a14.09,14.09,0,0,0-3.72-1.6l-1.69,1.87a11.44,11.44,0,0,0-3.74,0h0l-1.66-1.89a13.56,13.56,0,0,0-1.92.65,14,14,0,0,0-1.82.91l.1,2.55h0a12.38,12.38,0,0,0-2.66,2.7l-5.86,1.32,1.81,2.36,1.82,1.74h0a12.67,12.67,0,0,0,0,3.84h0L203.85,195a15.37,15.37,0,0,1-.09,2.92l1.61.91,2.48-.1h0a12.69,12.69,0,0,0,2.63,2.74l3.12,4.12.47,0,1.69-1.87a12.09,12.09,0,0,0,3.75,0l1.67,1.89.45,0s2.71-1.2,3.28-1.54l-.09-2.55h0a12.38,12.38,0,0,0,2.66-2.7L230,199l1.6-.9-1.86-4.65h0a12.74,12.74,0,0,0,0-3.85h0Zm-13.86,8.81a7.13,7.13,0,1,1,6.94-7.13A7,7,0,0,1,217.71,196.69Z" style="fill: #b3b3b3"/>
      <path d="M231.27,191.82a14.74,14.74,0,0,0,0-4.35h0l2.09-1.93a18.59,18.59,0,0,0-.71-2.23,16.92,16.92,0,0,0-1-2.1l-2.81.11h0a13.68,13.68,0,0,0-3-3.09l.14-2.88a16.21,16.21,0,0,0-4.19-1.81l-1.92,2.12a13,13,0,0,0-4.23,0h0l-1.89-2.14a16.78,16.78,0,0,0-2.17.73,15.11,15.11,0,0,0-2.05,1l.11,2.88h0a13.6,13.6,0,0,0-3,3.05l-2.81-.15a17.25,17.25,0,0,0-1.77,4.31l2.07,2h0a14.34,14.34,0,0,0,0,4.34h0L202,193.59a15.57,15.57,0,0,0,.71,2.23,16.92,16.92,0,0,0,1,2.1l2.81-.11h0a14.3,14.3,0,0,0,3,3.09l-.14,2.88a16.12,16.12,0,0,0,4.2,1.81l1.91-2.12a13,13,0,0,0,4.23,0l1.89,2.14a15.81,15.81,0,0,0,2.17-.73,17.07,17.07,0,0,0,2-1l-.11-2.89h0a13.6,13.6,0,0,0,3-3.05l2.81.14a16.67,16.67,0,0,0,1.77-4.3l-2.06-2Zm-13.56,4.87a7.13,7.13,0,1,1,6.94-7.13A7,7,0,0,1,217.71,196.69Z" style="fill: #b3b3b3"/>
      <path d="M231.27,191.82a14.74,14.74,0,0,0,0-4.35h0l2.09-1.93a18.59,18.59,0,0,0-.71-2.23,16.92,16.92,0,0,0-1-2.1l-2.81.11h0a13.68,13.68,0,0,0-3-3.09l.14-2.88a16.21,16.21,0,0,0-4.19-1.81l-1.92,2.12a13,13,0,0,0-4.23,0h0l-1.89-2.14a16.78,16.78,0,0,0-2.17.73,15.11,15.11,0,0,0-2.05,1l.11,2.88h0a13.6,13.6,0,0,0-3,3.05l-2.81-.15a17.25,17.25,0,0,0-1.77,4.31l2.07,2h0a14.34,14.34,0,0,0,0,4.34h0L202,193.59a15.57,15.57,0,0,0,.71,2.23,16.92,16.92,0,0,0,1,2.1l2.81-.11h0a14.3,14.3,0,0,0,3,3.09l-.14,2.88a16.12,16.12,0,0,0,4.2,1.81l1.91-2.12a13,13,0,0,0,4.23,0l1.89,2.14a15.81,15.81,0,0,0,2.17-.73,17.07,17.07,0,0,0,2-1l-.11-2.89h0a13.6,13.6,0,0,0,3-3.05l2.81.14a16.67,16.67,0,0,0,1.77-4.3l-2.06-2Zm-13.56,4.87a7.13,7.13,0,1,1,6.94-7.13A7,7,0,0,1,217.71,196.69Z" style="fill: #b3b3b3"/>
      <path d="M217.71,181.72a7.84,7.84,0,1,0,7.64,7.84A7.76,7.76,0,0,0,217.71,181.72Zm0,15a7.13,7.13,0,1,1,6.94-7.13A7,7,0,0,1,217.71,196.69Z" style="fill: #b3b3b3"/>
    </g>
    <path d="M259.86,136.38a22.22,22.22,0,1,0,22.22,22.22A22.22,22.22,0,0,0,259.86,136.38Zm0,39.49a17.28,17.28,0,1,1,17.27-17.27A17.27,17.27,0,0,1,259.86,175.87Z" style="fill: url(#radial-gradient)"/>
    <path d="M259.86,136.38a22.22,22.22,0,1,0,22.22,22.22A22.22,22.22,0,0,0,259.86,136.38Zm0,39.49a17.28,17.28,0,1,1,17.27-17.27A17.27,17.27,0,0,1,259.86,175.87Z" style="fill: #ffa900"/>
    <path d="M217.64,177.21a12,12,0,1,0,12,12A12,12,0,0,0,217.64,177.21Zm0,21.32a9.33,9.33,0,1,1,9.32-9.32A9.32,9.32,0,0,1,217.64,198.53Z" style="fill: url(#radial-gradient-2)"/>
    <path d="M217.64,177.21a12,12,0,1,0,12,12A12,12,0,0,0,217.64,177.21Zm0,21.32a9.33,9.33,0,1,1,9.32-9.32A9.32,9.32,0,0,1,217.64,198.53Z" style="fill: #ffa900"/>
  </g>
  <g>
    <path d="M366.24,97.38v26.75H408v8.49H366.24V166h-8.72V89H413.1v8.37Z" style="fill: #ffa900"/>
    <path d="M459.49,88.08q17.2,0,28.26,11.51,10.81,11.16,10.81,27.91t-10.81,27.91q-11.06,11.51-28.26,11.51t-28.25-11.51q-10.82-11.16-10.82-27.91t10.82-27.91Q442.28,88.09,459.49,88.08Zm0,70.35q13.72,0,22.21-9,8.15-8.61,8.14-22t-8.14-22q-8.49-9-22.21-9t-22.21,9q-8.13,8.61-8.14,22t8.14,22Q445.77,158.44,459.49,158.43Z" style="fill: #ffa900"/>
    <path d="M577.05,89v43.84q0,15.35-9.13,24.71t-23.66,9.36q-14.41,0-23.55-9.36t-9.12-24.71V89h8.72v44.07q0,12.45,7.44,19.42,6.39,5.92,16.51,5.93t16.63-5.93q7.44-6.85,7.44-19.42V89Z" style="fill: #ffa900"/>
    <path d="M661.35,89v77H651.24l-47.56-65v65H595V89h10.11l47.56,64.77V89Z" style="fill: #ffa900"/>
    <path d="M712.63,89a34.6,34.6,0,0,1,13.26,2.62,33.23,33.23,0,0,1,11.28,7.61Q748,110.3,748,127.5t-10.81,28.26a33.23,33.23,0,0,1-11.28,7.61A34.6,34.6,0,0,1,712.63,166H680.19V89Zm-.35,68.72a24.53,24.53,0,0,0,19.66-8.95q7.32-8.61,7.32-21.28t-7.32-21.28a24.53,24.53,0,0,0-19.66-9H688.91v60.46Z" style="fill: #ffa900"/>
    <path d="M770.77,166h-8.72V89h36.86q11.75,0,18.84,6.51t7.09,17.56q0,14.42-12,19.65a32.86,32.86,0,0,1-6.63,2.21L826.47,166H816.12l-18.6-29.54H770.77Zm0-37.79H797.4q12.33,0,17-7.68a14.3,14.3,0,0,0,1.74-7.44q0-7.32-5-11.57t-13.25-4.24h-27.1Z" style="fill: #ffa900"/>
    <path d="M848.56,166h-8.72V89h8.72Z" style="fill: #ffa900"/>
    <path d="M876.12,97.38V123.2h42.79v8.49H876.12v25.93H924V166H867.4V89H924v8.37Z" style="fill: #ffa900"/>
    <path d="M946,100.81a9.57,9.57,0,0,0-3,4.25,15.72,15.72,0,0,0-.76,4.94,6.68,6.68,0,0,0,2.27,4.83,18.46,18.46,0,0,0,6,3.72,61.41,61.41,0,0,0,8.49,2.67l9.71,2.38q4.93,1.23,9.71,2.8a35.53,35.53,0,0,1,8.48,4q8.27,5.24,8.26,14.3,0,10.81-8.08,16.51t-22.39,5.7q-16.15,0-24.65-6.75-7.56-6-8.6-17.2h9.07q.47,7.91,7.67,12.09,6.28,3.6,16.63,3.6,21.63,0,21.63-13.6a8.44,8.44,0,0,0-3.9-7.33,34.83,34.83,0,0,0-9.76-4.42q-5.88-1.74-12.68-3.25a79.61,79.61,0,0,1-12.67-3.9,29,29,0,0,1-9.77-6.28q-3.9-3.88-3.9-10.52A19,19,0,0,1,941,94q7.21-5.92,21.75-5.93t22.67,6.75a20.07,20.07,0,0,1,7.79,15.23h-9q-1.17-9.54-12.33-12.68a35.52,35.52,0,0,0-9.82-1.16,31.65,31.65,0,0,0-9.89,1.34A18.32,18.32,0,0,0,946,100.81Z" style="fill: #ffa900"/>
    <path d="M1016.7,154.13V166h-11.28V154.13Z" style="fill: #ffa900"/>
    <path d="M1041,166h-8.72V89H1041Z" style="fill: #ffa900"/>
    <path d="M1094,88.08q17.21,0,28.25,11.51,10.82,11.16,10.82,27.91t-10.82,27.91q-11,11.51-28.25,11.51t-28.26-11.51Q1055,144.25,1055,127.5t10.81-27.91Q1076.81,88.09,1094,88.08Zm0,70.35q13.71,0,22.21-9,8.13-8.61,8.13-22t-8.13-22q-8.49-9-22.21-9t-22.21,9q-8.14,8.61-8.14,22t8.14,22Q1080.3,158.44,1094,158.43Z" style="fill: #ffa900"/>
  </g>
</svg>
