<?xml version="1.0" encoding="UTF-8" standalone="no"?>
<!-- Created with Inkscape (http://www.inkscape.org/) -->

<svg
   xmlns:dc="http://purl.org/dc/elements/1.1/"
   xmlns:cc="http://creativecommons.org/ns#"
   xmlns:rdf="http://www.w3.org/1999/02/22-rdf-syntax-ns#"
   xmlns:svg="http://www.w3.org/2000/svg"
   xmlns="http://www.w3.org/2000/svg"
   xmlns:sodipodi="http://sodipodi.sourceforge.net/DTD/sodipodi-0.dtd"
   xmlns:inkscape="http://www.inkscape.org/namespaces/inkscape"
   version="1.1"
   width="932.40271"
   height="352.19434"
   id="svg2"
   xml:space="preserve"
   inkscape:version="0.48.3.1 r9886"
   sodipodi:docname="logotipo 4Linux.svg"><sodipodi:namedview
     pagecolor="#ffffff"
     bordercolor="#666666"
     borderopacity="1"
     objecttolerance="10"
     gridtolerance="10"
     guidetolerance="10"
     inkscape:pageopacity="0"
     inkscape:pageshadow="2"
     inkscape:window-width="1366"
     inkscape:window-height="692"
     id="namedview50"
     showgrid="false"
     showguides="true"
     inkscape:guide-bbox="true"
     inkscape:zoom="0.61775882"
     inkscape:cx="383.29495"
     inkscape:cy="130.29072"
     inkscape:window-x="0"
     inkscape:window-y="24"
     inkscape:window-maximized="1"
     inkscape:current-layer="text3085" /><metadata
     id="metadata8"><rdf:RDF><cc:Work
         rdf:about=""><dc:format>image/svg+xml</dc:format><dc:type
           rdf:resource="http://purl.org/dc/dcmitype/StillImage" /><dc:title></dc:title></cc:Work></rdf:RDF></metadata><defs
     id="defs6"><clipPath
   id="clipPath18"><path
     d="m 0,0 0,2880 5650,0 L 5650,0 0,0 z"
     id="path20" /></clipPath><clipPath
   id="clipPath30"><path
     d="m 0,10 5650,0 0,2870 L 0,2880 0,10 z"
     id="path32" /></clipPath><clipPath
   id="clipPath60"><path
     d="m 0,10 5650,0 0,2870 L 0,2880 0,10 z"
     id="path62" /></clipPath><clipPath
   id="clipPath122"><path
     d="m 0,10 5650,0 0,2870 L 0,2880 0,10 z"
     id="path124" /></clipPath><clipPath
   id="clipPath158"><path
     d="m 0,10 5650,0 0,2870 L 0,2880 0,10 z"
     id="path160" /></clipPath><clipPath
   id="clipPath182"><path
     d="m 0,0 0,2880 5650,0 L 5650,0 0,0 z"
     id="path184" /></clipPath><clipPath
   id="clipPath194"><path
     d="m 0,10 5650,0 0,2870 L 0,2880 0,10 z"
     id="path196" /></clipPath><clipPath
   id="clipPath230"><path
     d="m 0,10 5650,0 0,2870 L 0,2880 0,10 z"
     id="path232" /></clipPath><clipPath
   id="clipPath260"><path
     d="m 0,10 5650,0 0,2731.26 -5650,0 L 0,10 z"
     id="path262" /></clipPath><clipPath
   id="clipPath312"><path
     d="m 1159.92,1002.08 121.72,-0.32 c -27.69,-156.131 -34.65,-185.78 -34.65,-185.78 l 0,0 -44.33,-222.46 c -44.93,1.41 -129.89,0 -129.89,0 l 0,0 -40.15,-200.622 686.05,0 55.12,292.774 -162.58,0.078 -17.81,-92.23 -200.78,0 c 0,0 50.31,250.941 78.08,407.07 l 0,0 121.68,0.39 37.62,201.8 -433.24,0.82 -36.84,-201.52 z"
     id="path314" /></clipPath><clipPath
   id="clipPath318"><path
     d="m 0,10 5650,0 0,2870 L 0,2880 0,10 z"
     id="path320" /></clipPath><clipPath
   id="clipPath342"><path
     d="m 1966.76,1201.72 -38.09,-200.58 c 0,0 72.38,-3.32 114.65,-1.761 l 0,0 -81.21,-423.277 -117.85,-0.59 -45.63,-244.532 436.6,3.52 45.28,242.809 -127.58,-1.207 c 25.98,155.386 52.73,269.136 78.67,424.568 l 0,0 131.21,-1.6 41.14,205.74 -437.19,-3.09 z"
     id="path344" /></clipPath><clipPath
   id="clipPath348"><path
     d="m 0,10 5650,0 0,2870 L 0,2880 0,10 z"
     id="path350" /></clipPath><clipPath
   id="clipPath372"><path
     d="m 5133.36,1001.65 35.51,-0.98 -102.11,-78.561 -80.71,79.221 45.98,-0.19 37.93,201.44 -435.35,2.31 -38.44,-202.89 82.81,0 243.17,-195.238 -57.89,-35.782 -256.45,-182.378 -88.67,0 -36.84,-203.75 434.3,0 38.17,204.179 -66.53,0 146.45,101.828 102.03,-102.257 -78.67,0 -38.52,-203.75 434.77,-0.473 37.03,199.101 -108.09,-0.66 -194.57,218.86 285.28,200.32 97.89,0 38.59,202.89 -438.48,1.95 -38.59,-205.19 z"
     id="path374" /></clipPath><clipPath
   id="clipPath378"><path
     d="m 0,10 5650,0 0,2870 L 0,2880 0,10 z"
     id="path380" /></clipPath><clipPath
   id="clipPath402"><path
     d="m 4056.95,1000.12 100.94,-0.429 -59.3,-317.461 c -8.75,-65.902 -79.72,-109.718 -162.14,-109.332 l 0,0 c -82.43,0.313 -153.52,28.161 -144.73,93.981 l 0,0 1.6,14.062 58.95,318.75 116.71,-1.132 38.6,203.671 -439.88,1.37 -35.28,-202.58 133.52,-1.329 -82.7,-400.781 C 3569.8,481.762 3725,389.648 3903.87,389.5 l 0,0 c 183.16,-0.121 348.51,97.93 369.33,218.941 l 0,0 77.27,390.278 144.45,0.972 38.2,204.649 -71.36,0 -367.78,1.02 -37.03,-205.24 z"
     id="path404" /></clipPath><clipPath
   id="clipPath408"><path
     d="m 0,10 5650,0 0,2870 L 0,2880 0,10 z"
     id="path410" /></clipPath><clipPath
   id="clipPath432"><path
     d="M 3148.36,1201.57 3047.07,703.289 2758.2,1200.2 l -253.24,2.73 -38.71,-203.321 153.71,-0.621 C 2590.39,843.68 2567.5,732.578 2537.81,577.352 l 0,0 -153.08,-0.122 -46.61,-243.98 334.46,-0.039 90.86,460.43 0.27,2.5 0.16,0.347 -0.43,-2.847 277.89,-461.68 269.96,1.519 44.76,239.18 -143.82,1.059 c 6.09,32.57 76.01,375.66 85.82,427.111 l 0,0 133.9,0.07 40.55,202.74 -324.14,-2.07 z"
     id="path434" /></clipPath><clipPath
   id="clipPath438"><path
     d="m 0,10 5650,0 0,2870 L 0,2880 0,10 z"
     id="path440" /></clipPath>






</defs><path
     d="m 206.74253,115.85352 -46.89375,32.2845 40.56412,-0.0285 6.32962,-32.25597 z m 16.00487,32.21749 16.40088,0.0186 -4.41463,22.31587 -16.29037,0.004 -4.44463,21.84065 -22.19437,0 4.30937,-21.87912 -70.30512,0 5.19637,-27.36967 72.96075,-49.511827 29.46912,0 -10.68737,54.581747 z"
     id="path3079"
     style="fill:#00aab0;fill-opacity:1;fill-rule:nonzero;stroke:none"
     inkscape:connector-curvature="0" /><path
     d="m 244.07327,182.63365 -1.83024,9.18197 86.67025,0 1.73712,-9.18197 z m 503.76667,-0.1551 -1.76815,9.36808 54.90561,0 1.76815,-9.36808 z m -67.96504,0 -1.67512,9.36808 54.87458,0 1.73713,-9.36808 z m -107.23662,0 c 6.37337,5.05562 15.85262,8.52492 26.39812,9.49217 l 11.97375,0 c 10.5215,-0.97807 20.25325,-4.46562 27.57688,-9.49217 z m -230.41738,-0.093 -1.76813,9.49217 55.06063,0 1.76813,-9.49217 z m 143.34388,-0.18611 5.89387,9.80235 39.985,0 1.86112,-9.80235 z m -75.13063,0 -1.89225,9.80235 42.31137,0 1.92325,-9.80235 z m -163.72425,-12.71825 -1.92325,9.52318 86.54613,0 1.76812,-9.52318 z m 503.61165,-0.1551 -1.76815,9.36808 54.87459,0 1.76815,-9.36808 z m -68.05815,0 -1.70612,9.36808 54.96767,0 1.73713,-9.36808 z m -117.81437,0 c 0.39487,3.44103 1.95112,6.65136 4.40487,9.52318 l 74.29312,0 c 3.11351,-2.87154 5.52401,-6.09469 7.01051,-9.52318 z m -219.77763,-0.062 -1.76813,9.52318 55.06075,0 1.79913,-9.52318 z m 133.04538,-0.12412 5.86275,9.74031 50.34562,0 1.83025,-9.74031 z m -64.801,0 -1.86126,9.74031 42.3735,0 1.92326,-9.74031 z m -97.8685,-12.81132 -1.83025,9.52318 20.56637,0 1.79913,-9.52318 z m -49.322,0 -1.89225,9.52318 24.00962,0 c 0.055,-0.27645 1.16,-5.82393 1.89213,-9.52318 z m 484.09995,-0.12412 9.36807,9.3991 30.64788,0 -8.34442,-9.3991 z m -40.63633,0 -13.21462,9.3991 35.425,0 13.49375,-9.3991 z m -79.81475,0 c -0.83475,3.98524 -3.50387,7.26972 -7.25875,9.52317 l 29.252,0 c 0.0888,-0.37798 0.1515,-0.73496 0.21713,-1.11672 l 1.67512,-8.40645 z m -62.93987,0 -1.98525,9.52317 30.30662,0 c -2.8805,-1.92247 -4.48025,-4.72942 -3.97062,-8.53053 l 0.0925,-0.99264 -24.44375,0 z m -204.3915,-0.031 -1.79925,9.49216 24.04062,0 c 0.56375,-3.2756 1.13788,-6.44017 1.70613,-9.49216 z m 107.76387,-0.1551 5.89375,9.80236 42.49763,0 c 0.31675,-1.61419 1.2695,-6.24799 1.98525,-9.80236 z m -34.99075,0 c -0.6105,3.12822 -1.242,6.42026 -1.89225,9.80236 l 23.079,0 1.95425,-9.80236 z m -166.45387,-12.87356 -1.89225,9.52317 23.9785,0 c 0.68925,-3.5025 1.01712,-5.16625 1.86125,-9.52317 z m 459.53197,-0.062 -1.61305,0.99265 -11.78764,8.37542 63.65328,0 -8.31339,-9.36807 z m -96.06935,0 -1.76812,9.49216 23.9165,0 1.86125,-9.49216 z m -62.69162,0 -1.95425,9.49216 24.31975,0 1.76812,-9.49216 z m -204.57763,0 -1.79925,9.49216 23.9165,0 c 0.61038,-3.20708 1.18725,-6.36689 1.79925,-9.49216 z m 97.34113,-0.18613 5.92475,9.83339 53.01337,0 c 0.8055,-3.99081 1.05825,-5.24851 1.98538,-9.83339 l -24.13363,0 -1.98537,9.7093 -5.64563,-9.7093 z m -24.50588,0 c -0.63787,3.238 -1.30125,6.49999 -1.95437,9.83339 l 23.17212,0 1.92325,-9.83339 z m -166.454,-12.90436 c -1.1835,6.31819 -1.613,8.37542 -1.613,8.37542 l -0.21725,1.14775 23.9165,0 c 0.62088,-3.22271 1.18188,-6.25562 1.79925,-9.52317 z m 450.66026,-0.062 11.66357,9.36807 35.26987,0 13.33865,-9.36807 z m -87.32163,0 -1.76813,9.52317 24.07163,0 1.86112,-9.52317 z m -62.4125,0 -1.98525,9.52317 24.04062,0 1.76813,-9.52317 z m -204.76375,0 -1.83025,9.49215 23.9165,0 c 0.6125,-3.13109 1.25087,-6.26146 1.86125,-9.49215 z m 134.255,-0.12413 -2.01625,9.80237 24.13362,0 c 0.69588,-3.44237 1.35463,-6.67492 1.98525,-9.80237 z m -61.41975,0 c -0.65125,3.33503 -1.25825,6.58205 -1.89225,9.80237 l 51.09012,0 -5.67662,-9.80237 z m -234.94638,-12.28396 -5.55262,28.41443 -35.79725,0 z m 68.36825,-0.68245 c -0.6545,3.67189 -1.27062,6.9802 -1.73712,9.52319 l 23.8855,0 c 0.61475,-3.28604 1.235,-6.56061 1.76825,-9.52319 z m 96.2555,-0.031 -1.83025,9.52318 23.94763,0 c 0.56425,-3.05773 1.11537,-6.2304 1.675,-9.52318 z m 335.60663,-0.031 11.66358,9.36808 70.38464,0 13.30764,-9.36808 -38.09271,0 -10.6399,8.18931 -8.37543,-8.18931 z m -68.49238,0 -1.76812,9.5542 24.19562,0 1.89225,-9.5542 z m -62.16437,0 -1.95425,9.5542 23.73037,0 1.76813,-9.5542 z m -70.57075,-0.031 -1.98525,9.77134 24.10262,0 c 0.92413,-4.59109 1.54825,-7.6905 1.95425,-9.77134 z m -61.51288,0 c -0.65212,3.41231 -1.281,6.62704 -1.89225,9.77134 l 40.94663,0 -5.67675,-9.77134 z m -233.98475,-4.55996 -2.41962,1.67509 -46.87138,32.32296 -3.195,2.17141 3.84638,0 40.57437,-0.062 0.96163,0 0.18612,-0.96162 6.32812,-32.26093 0.58938,-2.88487 z m 149.08263,-8.46849 -1.79913,9.49215 54.90563,0 1.89225,-9.49215 z m 404.78157,-0.031 -1.76815,9.36808 55.40194,0 1.79916,-9.36808 z m -67.84095,0 -1.76825,9.36808 55.09179,0 1.73712,-9.36808 z m -68.15125,0 -1.73712,9.49216 55.33987,0 1.76813,-9.49216 z m -66.352,0 -1.67512,9.49216 55.24687,0 1.79913,-9.49216 z m -299.65437,0 -1.73713,9.49216 54.6575,0 1.76813,-9.49216 z m 246.29975,-0.062 -1.98525,9.77134 40.9775,0 1.95425,-9.77134 z m -81.11763,0 -1.86125,9.77134 50.22163,0 -5.67663,-9.77134 z m -221.1735,-9.95746 27.639,0 -10.42275,53.16849 -0.27925,1.42692 1.458,0 14.95163,0 -3.9705,19.97695 -15.29288,0 -0.96162,0 -0.21725,0.93061 -4.24975,20.87654 -19.79075,0 4.03262,-20.47327 0.27913,-1.36489 -1.42688,0 -68.86475,0 4.83913,-25.49854 z m -0.7755,-2.357525 -0.31012,0.186125 -72.92838,49.5081 -0.43425,0.27919 -0.0925,0.49632 -5.18037,27.39076 -0.27913,1.3959 1.42688,0 68.86475,0 -4.03263,20.47328 -0.24825,1.39591 1.427,0 22.17938,0 0.96162,0 0.18613,-0.9306 4.28074,-20.90756 15.32401,0 0.96149,0 0.18613,-0.96163 4.43587,-22.30346 0.24825,-1.42692 -1.427,0 -14.95162,0 10.42275,-53.199515 0.27913,-1.3959 -1.45788,0 -29.46913,0 z m 156.4655,-0.713463 -1.79912,9.492148 55.02962,0 1.89225,-9.492148 z m 404.78156,-0.062 -1.76815,9.368075 55.43295,0 1.76815,-9.368075 z m -67.84093,0 -1.76825,9.368075 55.06075,0 1.76815,-9.368075 z m -68.27538,0 -1.70612,9.492148 55.402,0 1.79912,-9.492148 z m -66.414,0 -1.67512,9.492148 55.433,0 1.79912,-9.492148 z m -52.98237,0 -1.98538,9.802348 40.94663,0 1.95425,-9.802348 z m -81.27275,0 -1.89225,9.802348 40.14012,0 -5.67675,-9.802348 z m -165.27513,-0.031 -1.76825,9.523178 54.7195,0 1.79925,-9.523178 z"
     id="path3081"
     style="fill:#000000;fill-opacity:1;fill-rule:nonzero;stroke:none"
     inkscape:connector-curvature="0" /><path
     d="m 115.59565,208.75978 -0.41562,4.08137 697.27017,0 0.4157,-4.08137 z"
     id="path3083"
     style="fill:#000000;fill-opacity:1;fill-rule:nonzero;stroke:none"
     inkscape:connector-curvature="0" /><g
     transform="matrix(1,0,-0.17632629,1,0,0)"
     style="font-size:45.48087692px;font-style:normal;font-variant:normal;font-weight:normal;font-stretch:normal;text-align:start;line-height:125%;letter-spacing:0px;word-spacing:9.11728477px;writing-mode:lr-tb;text-anchor:start;fill:#000000;fill-opacity:1;stroke:#ffffff;stroke-width:1.18714654;stroke-linecap:butt;stroke-linejoin:miter;font-family:Museo Sans;-inkscape-font-specification:Museo Sans"
     id="text3085"><path
       id="path3110"
       style="line-height:125%;letter-spacing:1.51954746px;word-spacing:1.89943433px;stroke:none;font-family:Museo Sans;-inkscape-font-specification:Museo Sans"
       d="m 828.56143,256.86701 c 0,0 3.8204,4.22972 10.64252,4.22972 6.36732,0 10.18772,-4.09328 10.18772,-9.05069 0,-10.41511 -15.55446,-8.64137 -15.55446,-15.28157 0,-2.54693 2.41049,-4.68453 5.82155,-4.68453 4.09328,0 7.04954,2.77433 7.04954,2.77433 l 2.04664,-3.72943 c 0,0 -3.13819,-3.22915 -9.09618,-3.22915 -6.04895,0 -10.36964,3.95685 -10.36964,8.95974 0,9.86934 15.55446,8.36849 15.55446,15.32705 0,3.04722 -2.54693,4.73001 -5.54867,4.73001 -4.77548,0 -8.18655,-3.45654 -8.18655,-3.45654 l -2.54693,3.41106 m -19.20023,3.68395 4.50261,0 0,-28.19814 11.00637,0 0,-3.91135 -26.51535,0 0,3.91135 11.00637,0 0,28.19814 m -35.71548,-3.68395 c 0,0 3.8204,4.22972 10.64252,4.22972 6.36732,0 10.18772,-4.09328 10.18772,-9.05069 0,-10.41511 -15.55446,-8.64137 -15.55446,-15.28157 0,-2.54693 2.41049,-4.68453 5.82155,-4.68453 4.09328,0 7.04954,2.77433 7.04954,2.77433 l 2.04664,-3.72943 c 0,0 -3.13819,-3.22915 -9.09618,-3.22915 -6.04895,0 -10.36964,3.95685 -10.36964,8.95974 0,9.86934 15.55446,8.36849 15.55446,15.32705 0,3.04722 -2.54693,4.73001 -5.54867,4.73001 -4.77548,0 -8.18655,-3.45654 -8.18655,-3.45654 l -2.54693,3.41106 m -12.29922,3.68395 4.5026,0 0,-32.10949 -4.5026,0 0,32.10949 m -25.59241,0 18.87456,0 0,-3.91135 -14.37195,0 0,-28.19814 -4.50261,0 0,32.10949 m -10.97536,0 4.68454,0 -11.55215,-32.10949 -4.73001,0 -11.55214,32.10949 4.63905,0 3.18366,-9.23261 12.09791,0 3.22914,9.23261 m -9.18713,-27.69785 c 0,0 0.68221,2.91078 1.22798,4.54809 l 3.54751,10.18771 -9.73291,0 3.59299,-10.18771 c 0.54577,-1.63731 1.27347,-4.54809 1.27347,-4.54809 l 0.091,0 m -24.71554,27.69785 4.5026,0 0,-32.10949 -4.5026,0 0,32.10949 m -36.56965,-16.23667 c 0,9.41453 6.77666,16.78244 16.4186,16.78244 8.0501,0 12.46176,-5.09385 12.46176,-5.09385 l -2.41049,-3.22915 c 0,0 -3.86588,4.18425 -9.91483,4.18425 -7.14049,0 -11.91599,-5.82156 -11.91599,-12.68917 0,-6.82212 4.68454,-12.27984 11.87051,-12.27984 5.54866,0 9.2781,3.50203 9.2781,3.50203 l 2.22856,-3.36558 c 0,0 -3.95684,-4.22973 -11.68859,-4.22973 -9.32357,0 -16.32763,7.09503 -16.32763,16.4186 m -25.0971,16.23667 19.42033,0 0,-3.91135 -14.91772,0 0,-10.32416 11.50666,0 0,-3.91136 -11.50666,0 0,-10.05127 14.14455,0 0,-3.91135 -18.64716,0 0,32.10949 m -29.14563,0 4.50261,0 0,-11.8705 7.23146,0 c 5.86702,0 10.09675,-4.09329 10.09675,-10.18772 0,-6.09443 -4.22973,-10.05127 -10.09675,-10.05127 l -11.73407,0 0,32.10949 m 4.50261,-15.78186 0,-12.41628 6.54924,0 c 3.82039,0 6.1854,2.27405 6.1854,6.13992 0,3.86587 -2.36501,6.27636 -6.23088,6.27636 l -6.50376,0 m -33.35048,12.09791 c 0,0 3.8204,4.22972 10.64252,4.22972 6.36732,0 10.18772,-4.09328 10.18772,-9.05069 0,-10.41511 -15.55446,-8.64137 -15.55446,-15.28157 0,-2.54693 2.41049,-4.68453 5.82155,-4.68453 4.09327,0 7.04954,2.77433 7.04954,2.77433 l 2.04663,-3.72943 c 0,0 -3.13818,-3.22915 -9.09617,-3.22915 -6.04895,0 -10.36964,3.95685 -10.36964,8.95974 0,9.86934 15.55446,8.36849 15.55446,15.32705 0,3.04722 -2.54693,4.73001 -5.54867,4.73001 -4.77548,0 -8.18656,-3.45654 -8.18656,-3.45654 l -2.54692,3.41106 m -40.23526,3.68395 19.42033,0 0,-3.91135 -14.91772,0 0,-10.32416 11.50666,0 0,-3.91136 -11.50666,0 0,-10.05127 14.14455,0 0,-3.91135 -18.64716,0 0,32.10949 m -30.65573,0 4.50261,0 0,-12.78012 6.86761,0 6.77665,12.78012 5.09386,0 -6.82213,-12.46176 c -0.59126,-1.04606 -0.9551,-1.45538 -0.9551,-1.45538 l 0,-0.091 c 3.50202,-1.13702 5.77607,-4.59357 5.77607,-8.68684 0,-4.22972 -2.13761,-7.45887 -5.41223,-8.68685 -1.22798,-0.45481 -2.63789,-0.72769 -6.00347,-0.72769 l -9.82387,0 0,32.10949 m 4.50261,-16.69148 0,-11.50666 5.18482,0 c 2.50144,0 3.5475,0.27289 4.41164,0.72769 1.63731,0.90962 2.54693,2.59242 2.54693,4.95742 0,3.59299 -2.18309,5.82155 -5.68511,5.82155 l -6.45828,0 m -15.4779,16.69151 4.68453,0 -11.55215,-32.10949 -4.73001,0 -11.55214,32.10949 4.63905,0 3.18366,-9.23261 12.09791,0 3.22915,9.23261 m -9.18714,-27.69785 c 0,0 0.68221,2.91078 1.22798,4.54809 l 3.54751,10.18771 -9.73291,0 3.59299,-10.18771 c 0.54577,-1.63731 1.27347,-4.54809 1.27347,-4.54809 l 0.091,0 m -38.48561,-4.41164 -6.27636,23.55909 c -0.45481,1.77375 -0.68221,3.41107 -0.68221,3.41107 l -0.091,0 c 0,0 -0.18192,-1.6828 -0.59125,-3.41107 l -5.68511,-23.55909 -4.63905,0 8.18656,32.10949 5.2303,0 5.54867,-20.83024 c 0.54577,-2.04663 0.9551,-4.54808 0.9551,-4.54808 l 0.091,0 c 0,0 0.40933,2.50145 0.9551,4.54808 l 5.54866,20.83024 5.23031,0 8.41396,-32.10949 -4.63905,0 -5.91252,23.55909 c -0.4548,1.72827 -0.59125,3.41107 -0.59125,3.41107 l -0.091,0 c 0,0 -0.2274,-1.63732 -0.68221,-3.41107 l -6.27636,-23.55909 -4.00232,0 m -36.75581,32.10949 4.5026,0 0,-28.19814 11.00638,0 0,-3.91135 -26.51536,0 0,3.91135 11.00638,0 0,28.19814 m -32.10474,0 4.50261,0 0,-13.73522 11.23378,0 0,-3.91136 -11.23378,0 0,-10.55156 13.18945,0 0,-3.91135 -17.69206,0 0,32.10949 m -41.01116,-16.28215 c 0,9.46001 7.23147,16.82792 16.50956,16.82792 9.27809,0 16.46408,-7.36791 16.46408,-16.82792 0,-9.23261 -7.18599,-16.37312 -16.46408,-16.37312 -9.27809,0 -16.50956,7.14051 -16.50956,16.37312 m 4.63905,0 c 0,-7.00405 5.32127,-12.27984 11.87051,-12.27984 6.54924,0 11.82503,5.27579 11.82503,12.27984 0,7.23145 -5.27579,12.68917 -11.82503,12.68917 -6.54924,0 -11.87051,-5.45772 -11.87051,-12.68917 m -31.30384,12.5982 c 0,0 3.8204,4.22972 10.64253,4.22972 6.36731,0 10.18771,-4.09328 10.18771,-9.05069 0,-10.41511 -15.55446,-8.64137 -15.55446,-15.28157 0,-2.54693 2.41049,-4.68453 5.82155,-4.68453 4.09328,0 7.04954,2.77433 7.04954,2.77433 l 2.04664,-3.72943 c 0,0 -3.13819,-3.22915 -9.09618,-3.22915 -6.04895,0 -10.36964,3.95685 -10.36964,8.95974 0,9.86934 15.55446,8.36849 15.55446,15.32705 0,3.04722 -2.54693,4.73001 -5.54866,4.73001 -4.77549,0 -8.18656,-3.45654 -8.18656,-3.45654 l -2.54693,3.41106 m -48.67408,3.68395 4.50261,0 0,-20.83024 c 0,-1.81923 -0.31837,-4.68453 -0.31837,-4.68453 l 0.091,0 c 0,0 1.50087,2.91078 2.68337,4.68453 l 14.32647,20.83024 4.41165,0 0,-32.10949 -4.50261,0 0,20.87572 c 0,1.77375 0.31837,4.63905 0.31837,4.63905 l -0.091,0 c 0,0 -1.50087,-2.91078 -2.68337,-4.63905 l -14.281,-20.87572 -4.45713,0 0,32.10949 m -27.54667,0 19.42033,0 0,-3.91135 -14.91772,0 0,-10.32416 11.50666,0 0,-3.91136 -11.50666,0 0,-10.05127 14.14455,0 0,-3.91135 -18.64716,0 0,32.10949 m -29.14563,0 4.50261,0 0,-11.8705 7.23146,0 c 5.86702,0 10.09675,-4.09329 10.09675,-10.18772 0,-6.09443 -4.22973,-10.05127 -10.09675,-10.05127 l -11.73407,0 0,32.10949 m 4.50261,-15.78186 0,-12.41628 6.54924,0 c 3.82039,0 6.1854,2.27405 6.1854,6.13992 0,3.86587 -2.36501,6.27636 -6.23088,6.27636 l -6.50376,0 m -45.51377,-0.50029 c 0,9.46001 7.23147,16.82792 16.50956,16.82792 9.27809,0 16.46407,-7.36791 16.46407,-16.82792 0,-9.23261 -7.18598,-16.37312 -16.46407,-16.37312 -9.27809,0 -16.50956,7.14051 -16.50956,16.37312 m 4.63905,0 c 0,-7.00405 5.32127,-12.27984 11.87051,-12.27984 6.54924,0 11.82503,5.27579 11.82503,12.27984 0,7.23145 -5.27579,12.68917 -11.82503,12.68917 -6.54924,0 -11.87051,-5.45772 -11.87051,-12.68917" /></g></svg>