<?xml version="1.0" encoding="UTF-8" standalone="no"?>
<svg
   xmlns:osb="http://www.openswatchbook.org/uri/2009/osb"
   xmlns:dc="http://purl.org/dc/elements/1.1/"
   xmlns:cc="http://creativecommons.org/ns#"
   xmlns:rdf="http://www.w3.org/1999/02/22-rdf-syntax-ns#"
   xmlns:svg="http://www.w3.org/2000/svg"
   xmlns="http://www.w3.org/2000/svg"
   xmlns:sodipodi="http://sodipodi.sourceforge.net/DTD/sodipodi-0.dtd"
   xmlns:inkscape="http://www.inkscape.org/namespaces/inkscape"
   id="svg335"
   version="1.1"
   viewBox="0 0 66.145832 15.875"
   height="60"
   width="250"
   sodipodi:docname="logo-white.svg"
   inkscape:version="0.92.3 (2405546, 2018-03-11)">
  <sodipodi:namedview
     pagecolor="#ffffff"
     bordercolor="#666666"
     borderopacity="1"
     objecttolerance="10"
     gridtolerance="10"
     guidetolerance="10"
     inkscape:pageopacity="0"
     inkscape:pageshadow="2"
     inkscape:window-width="1582"
     inkscape:window-height="814"
     id="namedview32"
     showgrid="false"
     units="px"
     inkscape:zoom="2.3786088"
     inkscape:cx="173.51861"
     inkscape:cy="37.794625"
     inkscape:window-x="0"
     inkscape:window-y="27"
     inkscape:window-maximized="0"
     inkscape:current-layer="svg335" />
  <defs
     id="defs329">
    <linearGradient
       id="linearGradient2607"
       osb:paint="solid">
      <stop
         style="stop-color:#ffffff;stop-opacity:1;"
         offset="0"
         id="stop2605" />
    </linearGradient>
  </defs>
  <metadata
     id="metadata332">
    <rdf:RDF>
      <cc:Work
         rdf:about="">
        <dc:format>image/svg+xml</dc:format>
        <dc:type
           rdf:resource="http://purl.org/dc/dcmitype/StillImage" />
        <dc:title></dc:title>
      </cc:Work>
    </rdf:RDF>
  </metadata>
  <g
     id="layer1"
     transform="matrix(0.49313482,0,0,0.49313482,-23.470058,-11.918591)">
    <g
       style="fill:#ffffff"
       id="g28"
       transform="matrix(0.26458333,0,0,0.26458333,-15.67812,-33.127475)">
      <polygon
         id="polygon2"
         points="493.885,296.295 493.885,296.285 493.883,296.285 "
         style="fill:#ffffff" />
      <path
         id="path4"
         d="m 386,263.184 c -2.535,0 -3,1.512 -3,2.414 v 28.781 c 0,0.9 0.465,2.412 3,2.412 2.535,0 3,-1.512 3,-2.412 v -28.781 c 0,-0.903 -0.465,-2.414 -3,-2.414 z"
         style="fill:#ffffff"
         inkscape:connector-curvature="0" />
      <path
         id="path6"
         d="m 399.86,265.598 c -2.733,0 -3.142,1.684 -3.142,2.686 0,1.004 0.408,2.688 3.142,2.688 2.734,0 3.142,-1.684 3.142,-2.688 -0.001,-1.003 -0.409,-2.686 -3.142,-2.686 z"
         style="fill:#ffffff"
         inkscape:connector-curvature="0" />
      <path
         id="path8"
         d="m 399.5,273.203 c -2.535,0 -2.5,1.512 -2.5,2.412 v 18.764 c 0,0.9 -0.035,2.412 2.5,2.412 2.535,0 2.5,-1.512 2.5,-2.412 v -18.764 c 0,-0.9 0.035,-2.412 -2.5,-2.412 z"
         style="fill:#ffffff"
         inkscape:connector-curvature="0" />
      <path
         id="path10"
         d="m 431.465,274 h -8.79 C 414.547,274 410,276.035 410,281.172 v 13.207 c 0,0.9 0.465,2.412 3,2.412 2.535,0 3,-1.512 3,-2.412 v -13.207 c 0,-1.994 2.353,-2.172 6.493,-2.172 h 9.108 c 4.171,0 6.398,0.178 6.398,2.172 v 13.207 c 0,0.9 -0.035,2.412 2.5,2.412 2.535,0 2.5,-1.512 2.5,-2.412 V 281.172 C 443,276.035 439.593,274 431.465,274 Z"
         style="fill:#ffffff"
         inkscape:connector-curvature="0" />
      <path
         id="path12"
         d="m 480.977,273.203 c -2.535,0 -2.977,1.512 -2.977,2.412 v 13.299 c 0,1.965 -1.864,3.086 -6.004,3.086 h -8.653 C 459.202,292 457,290.879 457,288.914 v -13.299 c 0,-0.9 -0.465,-2.412 -3,-2.412 -2.535,0 -3,1.512 -3,2.412 v 13.254 c 0,5.105 4.396,8.131 12.525,8.131 h 8.334 c 8.128,0 12.141,-3.025 12.141,-8.131 v -13.254 c 0,-0.9 -0.447,-2.412 -3.023,-2.412 z"
         style="fill:#ffffff"
         inkscape:connector-curvature="0" />
      <path
         id="path14"
         d="m 524.447,276.48 c 0.121,-0.313 0.197,-0.586 0.238,-0.91 0,-0.883 -0.372,-2.367 -2.867,-2.367 -0.424,0 -0.812,0.064 -1.152,0.191 -0.33,0.121 -0.685,0.318 -1.043,0.578 l -11.511,7.867 -11.321,-7.859 c -0.371,-0.268 -0.727,-0.465 -1.055,-0.586 -0.348,-0.129 -0.754,-0.191 -1.243,-0.191 -2.575,0 -2.96,1.455 -2.96,2.322 0,0.32 0.096,0.672 0.281,1.041 0.192,0.389 0.546,0.75 1.073,1.1 l 10.378,7.191 -11.066,7.566 c -0.492,0.352 -0.823,0.688 -1.012,1.029 -0.193,0.346 -0.291,0.7 -0.291,1.03 0,0.867 0.373,2.333 2.843,2.333 h 0.001 l 0.145,-0.009 c 0.701,0 1.402,-0.253 2.074,-0.733 l 11.83,-8.053 11.572,7.978 c 0.389,0.316 0.787,0.53 1.186,0.638 0.373,0.104 0.77,0.155 1.18,0.155 2.575,0 2.959,-1.453 2.959,-2.32 0,-0.334 -0.104,-0.678 -0.318,-1.049 -0.201,-0.348 -0.532,-0.699 -1.036,-1.096 l -10.694,-7.374 10.738,-7.332 c 0.575,-0.393 0.925,-0.766 1.071,-1.14 z m -30.564,19.805 c 0,0 0.001,0 0.002,0 v 0.01 z"
         style="fill:#ffffff"
         inkscape:connector-curvature="0" />
      <path
         id="path16"
         d="m 561.022,263.184 c -2.575,0 -3.022,1.512 -3.022,2.414 V 274 H 543.086 C 534.957,274 531,276.035 531,281.172 v 7.697 c 0,5.105 3.957,8.131 12.086,8.131 h 9.199 c 8.128,0 11.715,-3.025 11.715,-8.131 v -23.271 c 0,-0.903 -0.442,-2.414 -2.978,-2.414 z M 536,281.127 c 0,-1.965 2.809,-2.127 6.949,-2.127 H 558 v 9.914 c 0,1.965 -1.438,3.086 -5.578,3.086 h -9.473 C 538.808,292 536,290.879 536,288.914 Z"
         style="fill:#ffffff"
         inkscape:connector-curvature="0" />
      <path
         id="path18"
         d="M 595.73,274 H 582.569 C 575.65,274 572,275.775 572,280.398 v 8.926 c 0,4.805 4.048,7.676 11.753,7.676 h 6.74 c 2.417,0 2.777,-1.15 2.777,-2 0,-0.85 -0.36,-2 -2.777,-2 h -6.74 C 579.885,293 578,291.092 578,289.279 V 288 h 25.336 c 2.258,0 2.664,-2.34 2.664,-3.139 v -5.102 C 606,275.561 602.499,274 595.73,274 Z m 4.27,6.672 V 283 h -22 v -2.328 c 0,-0.654 -0.077,-1.672 4.843,-1.672 h 12.523 c 4.783,0 4.634,1.018 4.634,1.672 z"
         style="fill:#ffffff"
         inkscape:connector-curvature="0" />
      <path
         id="path20"
         d="m 647.032,273.801 c -0.541,-0.396 -1.238,-0.598 -2.072,-0.598 -0.594,0 -1.093,0.104 -1.484,0.309 -0.378,0.197 -0.729,0.492 -1.04,0.875 l -13.276,16.018 -13.141,-16.016 c -0.315,-0.385 -0.666,-0.68 -1.044,-0.879 -0.391,-0.203 -0.89,-0.307 -1.483,-0.307 -0.867,0 -1.583,0.211 -2.126,0.627 -0.583,0.449 -0.879,1.064 -0.879,1.832 0,0.242 0.05,0.494 0.147,0.746 0.098,0.258 0.285,0.541 0.562,0.85 l 15.203,18.207 c 0.42,0.525 0.832,0.871 1.262,1.059 0.411,0.178 0.899,0.268 1.452,0.268 0.539,0 1.038,-0.078 1.484,-0.232 0.488,-0.17 0.949,-0.525 1.404,-1.086 l 15.2,-18.203 c 0.285,-0.32 0.472,-0.602 0.571,-0.861 0.098,-0.256 0.147,-0.521 0.147,-0.793 10e-4,-0.762 -0.306,-1.388 -0.887,-1.816 z"
         style="fill:#ffffff"
         inkscape:connector-curvature="0" />
      <path
         id="path22"
         d="m 668.188,280 h -15.074 c -2.377,0 -2.731,1.598 -2.731,2.432 0,0.883 0.354,2.568 2.731,2.568 h 15.074 c 2.416,0 2.776,-1.686 2.776,-2.568 0,-0.834 -0.36,-2.432 -2.776,-2.432 z"
         style="fill:#ffffff"
         inkscape:connector-curvature="0" />
      <path
         id="path24"
         d="m 698.426,273.49 h -15.15 v -7.893 c 0,-0.902 -0.465,-2.414 -3,-2.414 -2.535,0 -3,1.512 -3,2.414 v 23.271 c 0,5.105 3.868,7.621 11.996,7.621 h 9.154 c 8.128,0 11.85,-2.516 11.85,-7.621 v -7.697 c -10e-4,-5.136 -3.722,-7.681 -11.85,-7.681 z m 0.137,18 h -9.473 c -4.141,0 -5.814,-0.611 -5.814,-2.576 V 278.49 h 15.287 c 4.14,0 6.713,0.672 6.713,2.637 v 7.787 c -10e-4,1.965 -2.574,2.576 -6.713,2.576 z"
         style="fill:#ffffff"
         inkscape:connector-curvature="0" />
      <path
         id="path26"
         d="m 733.902,273.49 h -3.507 c -8.128,0 -12.12,2.545 -12.12,7.682 v 13.207 c 0,0.9 0.465,2.412 3,2.412 2.535,0 3,-1.512 3,-2.412 V 281.08 c 0,-1.934 1.798,-2.59 5.938,-2.59 h 3.688 c 2.456,0 2.822,-1.617 2.822,-2.5 0.002,-0.885 -0.365,-2.5 -2.821,-2.5 z"
         style="fill:#ffffff"
         inkscape:connector-curvature="0" />
    </g>
    <g
       id="g52"
       transform="matrix(0.18373221,0,0,0.18373221,9.2202119,-11.324714)">
      <g
         id="g50">
        <g
           id="g32">
          <path
             id="path30"
             d="m 266.083,299.028 c -0.452,-2.476 -0.978,-4.56 -1.172,-6.676 -0.143,-1.562 -0.84,-2.284 -2.22,-2.878 -2.654,-1.143 -5.335,-2.313 -7.776,-3.838 -2.723,-1.704 -4.948,-4.045 -6.769,-7.01 7.385,-5.119 15.274,-8.791 23.856,-11.006 8.575,-2.211 17.28,-2.778 26.457,-1.879 -0.859,-2.993 -1.611,-5.613 -2.392,-8.332 -18.781,-1.147 -35.799,3.643 -51.361,13.777 -0.217,-0.284 -0.33,-0.391 -0.389,-0.521 -0.105,-0.23 -0.201,-0.472 -0.26,-0.719 -2.123,-8.893 -0.808,-17.143 5.241,-24.156 7.455,-8.646 16.86,-14.237 28.052,-16.728 0.979,-0.22 1.947,-0.486 3.085,-0.772 -0.413,-2.687 -0.795,-5.17 -1.201,-7.807 -15.643,2.902 -28.25,10.381 -38.154,22.42 -5.597,-5.402 -14.457,-3.541 -16.824,4.611 0.789,8.269 3.181,10.832 10.823,11.471 -0.754,9.565 1.818,18.188 7.77,25.715 5.915,7.484 13.653,12.093 23.234,14.328 z M 229.36,288.82 c 3.258,15.664 9.964,28.854 22.792,38.503 -2.876,3.826 -3.445,7.818 -0.785,11.851 2.048,3.104 5.121,4.581 8.83,4.068 5.782,-0.797 8.286,-4.629 8.617,-10.234 9.549,0.382 18.042,-2.188 25.402,-8.075 7.325,-5.857 11.822,-13.41 13.449,-22.914 -3.062,0.661 -5.784,1.25 -8.387,1.812 -3.908,8.993 -7.919,14.432 -11.853,15.968 -10.152,-15.072 -14.647,-31.617 -12.725,-50.179 -2.963,0.852 -5.62,1.615 -8.38,2.409 -1.181,18.843 3.748,35.857 13.915,51.528 -0.668,0.238 -1.04,0.41 -1.431,0.503 -8.901,2.112 -17.147,0.766 -24.124,-5.337 -8.749,-7.655 -14.371,-17.278 -16.865,-28.681 -0.146,-0.67 -0.419,-1.314 -0.727,-2.261 -2.548,0.343 -4.943,0.664 -7.728,1.039 z m 99.695,-8.296 c -2.618,1.572 -4.958,3.105 -7.41,4.428 -13.356,7.201 -27.625,9.988 -43.095,8.436 0.846,2.983 1.6,5.646 2.364,8.342 18.756,1.091 35.843,-3.463 51.528,-13.901 0.267,0.787 0.518,1.336 0.639,1.911 1.971,9.294 0.282,17.71 -6.359,24.731 -7.675,8.114 -16.968,13.491 -27.952,15.826 -0.581,0.124 -1.133,0.382 -1.805,0.615 -0.301,2.652 0.443,5.077 0.865,7.802 15.893,-3.327 29.367,-10.213 38.997,-23.621 3.969,2.742 8.022,3.16 11.967,0.232 3.155,-2.343 4.401,-5.686 3.523,-9.493 -1.203,-5.217 -4.904,-7.492 -10.275,-7.609 -0.022,-9.265 -2.647,-17.596 -8.525,-24.729 -5.852,-7.101 -13.287,-11.512 -22.536,-13.084 0.569,2.973 1.084,5.666 1.628,8.508 6.495,2.068 12.172,5.451 16.446,11.606 z m 18.498,-10.187 c -2.566,-14.819 -9.58,-26.784 -20.523,-36.658 3.619,-3.638 4.676,-7.766 2.186,-12.291 -1.822,-3.312 -4.913,-5.017 -8.676,-4.69 -5.688,0.493 -8.515,4.066 -9.139,9.732 -10.029,-1.358 -19.097,0.853 -27.133,6.825 -8.004,5.951 -12.893,13.91 -15.197,23.861 2.238,-0.397 4.077,-0.837 5.939,-1.023 1.898,-0.191 3.01,-0.98 3.649,-2.867 1.777,-5.252 4.871,-9.633 9.279,-13.039 0.465,-0.359 0.988,-0.645 1.58,-1.025 9.698,14.23 14.187,29.738 13.146,47.04 2.887,-0.947 5.479,-1.795 8.136,-2.665 0.418,-17.554 -4.337,-33.408 -14.075,-47.982 4.333,-1.426 8.499,-1.68 12.743,-1.066 7.276,1.053 12.813,5.002 17.47,10.449 6.188,7.242 10.53,15.397 12.392,24.793 0.201,1.019 0.75,1.579 1.79,1.459 2.064,-0.241 4.124,-0.543 6.433,-0.853 z"
             style="clip-rule:evenodd;fill:#303030;fill-rule:evenodd"
             inkscape:connector-curvature="0" />
        </g>
        <g
           id="g36">
          <path
             id="path34"
             d="m 266.083,299.028 c -9.58,-2.235 -17.318,-6.845 -23.233,-14.327 -5.952,-7.527 -8.523,-16.15 -7.77,-25.715 -7.642,-0.639 -10.034,-3.202 -10.823,-11.471 2.367,-8.152 11.228,-10.014 16.824,-4.611 9.904,-12.039 22.511,-19.518 38.154,-22.42 0.406,2.637 0.788,5.12 1.201,7.807 -1.138,0.286 -2.106,0.553 -3.085,0.772 -11.192,2.49 -20.597,8.081 -28.052,16.728 -6.049,7.014 -7.364,15.264 -5.241,24.156 0.059,0.247 0.155,0.488 0.26,0.719 0.059,0.131 0.172,0.237 0.389,0.521 15.563,-10.135 32.58,-14.925 51.361,-13.777 0.78,2.719 1.532,5.339 2.392,8.332 -9.177,-0.899 -17.882,-0.332 -26.457,1.879 -8.583,2.215 -16.471,5.887 -23.856,11.006 1.821,2.965 4.045,5.306 6.769,7.01 2.44,1.525 5.122,2.695 7.776,3.838 1.379,0.594 2.077,1.316 2.22,2.878 0.192,2.116 0.718,4.2 1.171,6.675 z"
             style="clip-rule:evenodd;fill:#ffffff;fill-opacity:1;fill-rule:evenodd;stroke:none"
             inkscape:connector-curvature="0" />
        </g>
        <g
           id="g40">
          <path
             id="path38"
             d="m 229.36,288.82 c 2.785,-0.375 5.18,-0.696 7.728,-1.04 0.308,0.946 0.581,1.591 0.727,2.261 2.494,11.402 8.116,21.025 16.865,28.681 6.977,6.103 15.222,7.449 24.124,5.337 0.392,-0.093 0.763,-0.265 1.431,-0.503 -10.167,-15.671 -15.096,-32.685 -13.915,-51.528 2.761,-0.794 5.417,-1.558 8.38,-2.409 -1.922,18.562 2.573,35.107 12.725,50.179 3.934,-1.536 7.944,-6.975 11.853,-15.968 2.603,-0.562 5.325,-1.15 8.387,-1.812 -1.627,9.504 -6.124,17.057 -13.449,22.914 -7.36,5.887 -15.854,8.457 -25.402,8.075 -0.331,5.605 -2.834,9.438 -8.617,10.234 -3.708,0.513 -6.782,-0.964 -8.83,-4.068 -2.66,-4.032 -2.091,-8.024 0.785,-11.851 -12.828,-9.648 -19.534,-22.838 -22.792,-38.502 z"
             style="clip-rule:evenodd;fill:#ffffff;fill-opacity:1;fill-rule:evenodd;stroke:none"
             inkscape:connector-curvature="0" />
        </g>
        <g
           id="g44">
          <path
             id="path42"
             d="m 329.055,280.524 c -4.274,-6.155 -9.951,-9.538 -16.446,-11.606 -0.544,-2.842 -1.059,-5.535 -1.628,-8.508 9.249,1.572 16.685,5.983 22.536,13.084 5.878,7.133 8.503,15.464 8.525,24.729 5.371,0.117 9.072,2.393 10.275,7.609 0.878,3.808 -0.368,7.15 -3.523,9.493 -3.944,2.928 -7.998,2.51 -11.967,-0.232 -9.63,13.408 -23.104,20.294 -38.997,23.621 -0.422,-2.725 -1.166,-5.149 -0.865,-7.802 0.672,-0.233 1.224,-0.491 1.805,-0.615 10.984,-2.335 20.277,-7.712 27.952,-15.826 6.642,-7.021 8.33,-15.438 6.359,-24.731 -0.121,-0.575 -0.372,-1.124 -0.639,-1.911 -15.686,10.438 -32.772,14.992 -51.528,13.901 -0.764,-2.696 -1.518,-5.358 -2.364,-8.342 15.47,1.553 29.738,-1.234 43.095,-8.436 2.452,-1.323 4.792,-2.856 7.41,-4.428 z"
             style="clip-rule:evenodd;fill:#ffffff;fill-opacity:1;fill-rule:evenodd;stroke:none"
             inkscape:connector-curvature="0" />
        </g>
        <g
           id="g48">
          <path
             id="path46"
             d="m 347.553,270.337 c -2.31,0.31 -4.369,0.611 -6.435,0.852 -1.04,0.12 -1.589,-0.44 -1.79,-1.459 -1.861,-9.396 -6.204,-17.551 -12.392,-24.793 -4.656,-5.447 -10.193,-9.396 -17.47,-10.449 -4.244,-0.613 -8.41,-0.359 -12.743,1.066 9.738,14.574 14.493,30.428 14.075,47.982 -2.656,0.87 -5.249,1.718 -8.136,2.665 1.041,-17.301 -3.447,-32.809 -13.146,-47.04 -0.592,0.381 -1.115,0.666 -1.58,1.025 -4.408,3.406 -7.502,7.787 -9.279,13.039 -0.639,1.887 -1.75,2.676 -3.649,2.867 -1.862,0.187 -3.701,0.626 -5.939,1.023 2.304,-9.951 7.193,-17.91 15.197,-23.861 8.036,-5.973 17.104,-8.184 27.133,-6.825 0.624,-5.666 3.451,-9.239 9.139,-9.732 3.763,-0.326 6.854,1.379 8.676,4.69 2.49,4.525 1.434,8.653 -2.186,12.291 10.945,9.875 17.959,21.84 20.525,36.659 z"
             style="clip-rule:evenodd;fill:#ffffff;fill-opacity:1;fill-rule:evenodd;stroke:none"
             inkscape:connector-curvature="0" />
        </g>
      </g>
    </g>
  </g>
</svg>
