<?xml version="1.0" encoding="UTF-8" standalone="no"?>
<!-- Created with Inkscape (http://www.inkscape.org/) -->

<svg
   xmlns:dc="http://purl.org/dc/elements/1.1/"
   xmlns:cc="http://creativecommons.org/ns#"
   xmlns:rdf="http://www.w3.org/1999/02/22-rdf-syntax-ns#"
   xmlns:svg="http://www.w3.org/2000/svg"
   xmlns="http://www.w3.org/2000/svg"
   xmlns:sodipodi="http://sodipodi.sourceforge.net/DTD/sodipodi-0.dtd"
   xmlns:inkscape="http://www.inkscape.org/namespaces/inkscape"
   id="svg2"
   version="1.1"
   inkscape:version="0.48.1 r9760"
   width="625"
   height="273.9875"
   xml:space="preserve"
   sodipodi:docname="LPI_Logo-Print_Colour.eps"><metadata
     id="metadata8"><rdf:RDF><cc:Work
         rdf:about=""><dc:format>image/svg+xml</dc:format><dc:type
           rdf:resource="http://purl.org/dc/dcmitype/StillImage" /><dc:title></dc:title></cc:Work></rdf:RDF></metadata><defs
     id="defs6"><clipPath
       clipPathUnits="userSpaceOnUse"
       id="clipPath18"><path
         d="M 0,2191.88 0,0 l 5000,0 0,2191.88 -5000,0 z"
         id="path20" /></clipPath></defs><sodipodi:namedview
     pagecolor="#ffffff"
     bordercolor="#666666"
     borderopacity="1"
     objecttolerance="10"
     gridtolerance="10"
     guidetolerance="10"
     inkscape:pageopacity="0"
     inkscape:pageshadow="2"
     inkscape:window-width="1435"
     inkscape:window-height="861"
     id="namedview4"
     showgrid="false"
     inkscape:zoom="0.76"
     inkscape:cx="325"
     inkscape:cy="136.99374"
     inkscape:window-x="0"
     inkscape:window-y="0"
     inkscape:window-maximized="0"
     inkscape:current-layer="g10" /><g
     id="g10"
     inkscape:groupmode="layer"
     inkscape:label="ink_ext_XXXXXX"
     transform="matrix(1.25,0,0,-1.25,0,273.9875)"><g
       id="g12"
       transform="scale(0.1,0.1)"><g
         id="g14"><g
           id="g16"
           clip-path="url(#clipPath18)"><path
             d="m 1463.28,1377.7 c 0,-51.38 -41.84,-93.34 -93.33,-93.34 -51.36,0 -93.06,41.96 -93.06,93.34 0,51.35 41.7,93.14 93.06,93.14 51.49,0 93.33,-41.79 93.33,-93.14"
             style="fill:#fbbc09;fill-opacity:1;fill-rule:nonzero;stroke:none"
             id="path22" /><path
             d="m 1220.39,1564.82 -187.28,0 -224.696,-842.738 636.786,0 49.94,187.277 -447.51,0 172.76,655.461"
             style="fill:#fbbc09;fill-opacity:1;fill-rule:nonzero;stroke:none"
             id="path24" /><path
             d="m 1126.29,534.48 c -310.071,0 -561.478,251.36 -561.478,561.46 0,310.08 251.407,561.46 561.478,561.46 310.07,0 561.47,-251.38 561.47,-561.46 0,-310.1 -251.4,-561.46 -561.47,-561.46 z m 0,1311.18 c -414.052,0 -749.72,-335.67 -749.72,-749.69 0,-414.091 335.668,-749.751 749.72,-749.751 414.03,0 749.71,335.66 749.71,749.751 0,414.02 -335.68,749.69 -749.71,749.69"
             style="fill:#fbbc09;fill-opacity:1;fill-rule:nonzero;stroke:none"
             id="path26" /><path
             d="m 2292.85,1120.96 c 15.1,0 26.88,3.46 35.34,10.38 8.47,6.93 12.69,17.17 12.69,30.74 0,26.99 -17.34,40.48 -52.02,40.48 l -38.6,0 0,-81.6 42.59,0 z m 14.05,125.86 c 27.41,0 49.68,-7.93 66.81,-23.8 17.13,-15.88 25.7,-36.33 25.7,-61.36 0,-25.32 -8.67,-45.8 -26.01,-61.47 -17.34,-15.66 -40.21,-23.49 -68.6,-23.49 l -54.54,0 0,-122.919 -56.63,0 0,293.039 113.27,0"
             style="fill:#262726;fill-opacity:1;fill-rule:nonzero;stroke:none"
             id="path28" /><path
             d="m 2571.49,1153.48 c 6.85,0 13.6,-1.54 20.24,-4.62 6.64,-3.08 14.37,-8.25 23.18,-15.52 l -18.46,-45.1 c -14.96,11.19 -26.99,16.78 -36.08,16.78 -7.97,0 -15.84,-2.97 -23.6,-8.92 -7.76,-5.94 -13.98,-13.81 -18.67,-23.59 -4.68,-9.79 -7.03,-19.58 -7.03,-29.37 l 0,-89.359 -51.6,0 0,195.919 51.6,0 0,-49.93 0.85,0 c 9.36,18.88 18.81,32.55 28.31,41.02 9.51,8.45 19.93,12.69 31.26,12.69"
             style="fill:#262726;fill-opacity:1;fill-rule:nonzero;stroke:none"
             id="path30" /><path
             d="m 2695.78,1052.58 c 0,-19.58 4.78,-35.21 14.36,-46.89 9.58,-11.67 22.41,-17.51 38.5,-17.51 16.78,0 29.99,5.59 39.64,16.78 9.65,11.19 14.48,27.2 14.48,48.04 0,19.85 -4.86,35.2 -14.58,46.04 -9.72,10.84 -22.9,16.26 -39.54,16.26 -15.67,0 -28.39,-5.74 -38.18,-17.2 -9.79,-11.47 -14.68,-26.64 -14.68,-45.52 z m 53.28,100.9 c 20.41,0 38.94,-4.27 55.59,-12.8 16.64,-8.53 29.5,-20.49 38.59,-35.87 9.09,-15.38 13.64,-32.79 13.64,-52.23 0,-20.28 -4.37,-38.04 -13.11,-53.279 -8.74,-15.25 -21.61,-27.27 -38.6,-36.082 -16.99,-8.809 -35.7,-13.219 -56.11,-13.219 -20.56,0 -39.23,4.41 -56.01,13.219 -16.78,8.812 -29.54,20.832 -38.28,36.082 -8.75,15.239 -13.11,32.999 -13.11,53.279 0,19.72 4.61,37.23 13.84,52.55 9.23,15.31 22.09,27.19 38.6,35.66 16.5,8.45 34.82,12.69 54.96,12.69"
             style="fill:#262726;fill-opacity:1;fill-rule:nonzero;stroke:none"
             id="path32" /><path
             d="m 3002.1,1250.6 c 6.02,0 12.21,-0.56 18.57,-1.68 6.36,-1.12 11.5,-2.59 15.42,-4.4 l 0,-41.96 c -7.13,1.96 -14.89,2.94 -23.29,2.94 -12.44,0 -21.71,-3.22 -27.79,-9.65 -6.08,-6.44 -9.12,-17.13 -9.12,-32.1 l 0,-14.05 33.56,0 0,-39.02 -33.56,0 0,-156.899 -51.61,0 0,156.899 -27.9,0 0,39.02 27.9,0 0,14.68 c 0,26.43 7.1,47.41 21.29,62.93 14.2,15.53 33.04,23.29 56.53,23.29"
             style="fill:#262726;fill-opacity:1;fill-rule:nonzero;stroke:none"
             id="path34" /><path
             d="m 3191.21,1072.71 c -1.4,14.27 -5.73,25.42 -13.01,33.46 -7.27,8.04 -17.27,12.06 -29.99,12.06 -13.01,0 -23.46,-3.84 -31.36,-11.53 -7.9,-7.69 -12.9,-19.02 -15,-33.99 l 89.36,0 z m -45.1,80.77 c 28.81,0 51.6,-9.23 68.38,-27.69 16.79,-18.46 25.18,-43.98 25.18,-76.57 l 0,-7.76 -138.66,0 c 2.1,-17.48 8.64,-30.94 19.61,-40.38 10.98,-9.439 26.05,-14.158 45.21,-14.158 12.3,0 24.16,2.129 35.55,6.398 11.4,4.262 23.18,10.73 35.35,19.4 l 0,-38.388 C 3213.8,958.109 3185.97,950 3153.24,950 c -30.9,0 -56.14,9.301 -75.72,27.898 -19.58,18.602 -29.37,43.352 -29.37,74.262 0,29.78 9.05,54.12 27.16,73 18.11,18.87 41.71,28.32 70.8,28.32"
             style="fill:#262726;fill-opacity:1;fill-rule:nonzero;stroke:none"
             id="path36" /><path
             d="m 3365.18,1153.48 c 10.76,0 20.9,-1.23 30.41,-3.68 9.51,-2.44 19.58,-6.32 30.21,-11.64 l 0,-41.32 c -9.79,6.29 -20.28,11.36 -31.47,15.21 -11.18,3.84 -21.18,5.77 -29.99,5.77 -7.41,0 -13.22,-1.4 -17.41,-4.2 -4.2,-2.8 -6.3,-6.78 -6.3,-11.96 0,-2.93 1.75,-5.87 5.25,-8.81 3.49,-2.93 13.07,-8.32 28.74,-16.15 22.37,-11.33 38.07,-21.78 47.09,-31.36 9.02,-9.58 13.53,-21.08 13.53,-34.51 0,-18.869 -6.57,-33.728 -19.72,-44.568 -13.15,-10.84 -30.91,-16.262 -53.28,-16.262 -13.98,0 -27.03,1.539 -39.12,4.621 -12.1,3.07 -22.13,6.777 -30.1,11.109 l 0,43.01 c 25.17,-13.99 46.36,-20.978 63.56,-20.978 8.81,0 15.94,1.57 21.39,4.718 5.46,3.149 8.18,7.309 8.18,12.48 0,3.08 -0.98,5.87 -2.93,8.39 -1.96,2.52 -4.9,5.11 -8.81,7.76 -3.92,2.66 -16.15,9.02 -36.71,19.09 -15.81,7.55 -27.48,15.77 -35.03,24.65 -7.55,8.88 -11.33,19.4 -11.33,31.57 0,17.34 6.78,31.18 20.35,41.53 13.56,10.35 31.39,15.53 53.49,15.53"
             style="fill:#262726;fill-opacity:1;fill-rule:nonzero;stroke:none"
             id="path38" /><path
             d="m 3560.12,1153.48 c 10.77,0 20.91,-1.23 30.42,-3.68 9.51,-2.44 19.57,-6.32 30.2,-11.64 l 0,-41.32 c -9.79,6.29 -20.27,11.36 -31.46,15.21 -11.19,3.84 -21.19,5.77 -30,5.77 -7.41,0 -13.21,-1.4 -17.41,-4.2 -4.19,-2.8 -6.29,-6.78 -6.29,-11.96 0,-2.93 1.74,-5.87 5.24,-8.81 3.5,-2.93 13.08,-8.32 28.74,-16.15 22.37,-11.33 38.07,-21.78 47.09,-31.36 9.02,-9.58 13.53,-21.08 13.53,-34.51 0,-18.869 -6.57,-33.728 -19.71,-44.568 -13.15,-10.84 -30.91,-16.262 -53.29,-16.262 -13.98,0 -27.02,1.539 -39.12,4.621 -12.09,3.07 -22.13,6.777 -30.1,11.109 l 0,43.01 c 25.17,-13.99 46.36,-20.978 63.56,-20.978 8.81,0 15.94,1.57 21.4,4.718 5.45,3.149 8.18,7.309 8.18,12.48 0,3.08 -0.98,5.87 -2.94,8.39 -1.96,2.52 -4.89,5.11 -8.81,7.76 -3.92,2.66 -16.15,9.02 -36.71,19.09 -15.8,7.55 -27.48,15.77 -35.03,24.65 -7.55,8.88 -11.33,19.4 -11.33,31.57 0,17.34 6.78,31.18 20.35,41.53 13.57,10.35 31.4,15.53 53.49,15.53"
             style="fill:#262726;fill-opacity:1;fill-rule:nonzero;stroke:none"
             id="path40" /><path
             d="m 3744.82,1149.7 0,-195.919 -51.6,0 0,195.919 51.6,0 z m -25.8,90.62 c 7.97,0 14.82,-2.87 20.56,-8.6 5.73,-5.74 8.6,-12.59 8.6,-20.56 0,-7.69 -2.83,-14.51 -8.5,-20.45 -5.66,-5.95 -12.55,-8.92 -20.66,-8.92 -7.83,0 -14.65,2.97 -20.45,8.92 -5.81,5.94 -8.71,12.76 -8.71,20.45 0,8.11 2.94,15 8.81,20.66 5.88,5.67 12.66,8.5 20.35,8.5"
             style="fill:#262726;fill-opacity:1;fill-rule:nonzero;stroke:none"
             id="path42" /><path
             d="m 3863.41,1052.58 c 0,-19.58 4.79,-35.21 14.37,-46.89 9.58,-11.67 22.41,-17.51 38.49,-17.51 16.78,0 30,5.59 39.65,16.78 9.65,11.19 14.47,27.2 14.47,48.04 0,19.85 -4.86,35.2 -14.58,46.04 -9.72,10.84 -22.9,16.26 -39.54,16.26 -15.66,0 -28.39,-5.74 -38.18,-17.2 -9.79,-11.47 -14.68,-26.64 -14.68,-45.52 z m 53.28,100.9 c 20.42,0 38.95,-4.27 55.59,-12.8 16.64,-8.53 29.5,-20.49 38.6,-35.87 9.09,-15.38 13.63,-32.79 13.63,-52.23 0,-20.28 -4.37,-38.04 -13.11,-53.279 -8.74,-15.25 -21.61,-27.27 -38.6,-36.082 C 3955.81,954.41 3937.11,950 3916.69,950 c -20.56,0 -39.23,4.41 -56.01,13.219 -16.78,8.812 -29.54,20.832 -38.28,36.082 -8.74,15.239 -13.11,32.999 -13.11,53.279 0,19.72 4.61,37.23 13.84,52.55 9.23,15.31 22.1,27.19 38.6,35.66 16.5,8.45 34.82,12.69 54.96,12.69"
             style="fill:#262726;fill-opacity:1;fill-rule:nonzero;stroke:none"
             id="path44" /><path
             d="m 4200.82,1153.48 c 20.98,0 37.72,-6.89 50.24,-20.67 12.51,-13.77 18.77,-31.92 18.77,-54.43 l 0,-124.599 -51.39,0 0,119.359 c 0,12.72 -3.04,22.79 -9.13,30.2 -6.08,7.41 -14.37,11.12 -24.85,11.12 -7.98,0 -15.46,-2.34 -22.45,-7.03 -6.99,-4.68 -14.68,-12.48 -23.07,-23.39 l 0,-130.259 -51.6,0 0,195.919 51.6,0 0,-27.48 c 9.51,11.19 19.26,19.19 29.26,24.02 10,4.82 20.87,7.24 32.62,7.24"
             style="fill:#262726;fill-opacity:1;fill-rule:nonzero;stroke:none"
             id="path46" /><path
             d="m 4380.24,1006.22 c 0,-7.13 2.27,-12.868 6.82,-17.2 4.54,-4.34 10.17,-6.508 16.88,-6.508 11.33,0 22.66,5.179 33.99,15.527 l 0,51.601 c -14.41,-4.89 -25.7,-9.51 -33.88,-13.84 -8.18,-4.34 -14.2,-8.74 -18.04,-13.22 -3.85,-4.47 -5.77,-9.93 -5.77,-16.36 z m 31.47,147.26 c 25.17,0 44.4,-5.35 57.68,-16.05 13.28,-10.7 19.93,-25.63 19.93,-44.79 l 0,-95.859 c 0,-7.41 3,-11.121 9.02,-11.121 2.52,0 6.05,1.09 10.59,3.25 4.55,2.172 8.36,4.649 11.43,7.449 l 0,-29.789 c -18.03,-11.05 -34.54,-16.57 -49.5,-16.57 -9.23,0 -16.33,1.539 -21.29,4.621 -4.97,3.07 -8.43,8.527 -10.38,16.359 -19.72,-13.992 -39.51,-20.98 -59.37,-20.98 -14.12,0 -26.25,4.762 -36.39,14.262 -10.14,9.519 -15.21,20.91 -15.21,34.199 0,16.919 5.03,30.279 15.1,40.059 10.07,9.79 27.69,18.32 52.86,25.59 l 41.75,12.17 0,9.02 c 0,19.16 -11.61,28.74 -34.83,28.74 -11.88,0 -23.7,-2.73 -35.45,-8.18 -11.74,-5.46 -22.44,-13.5 -32.09,-24.12 l 0,46.35 c 21.4,16.92 46.78,25.39 76.15,25.39"
             style="fill:#262726;fill-opacity:1;fill-rule:nonzero;stroke:none"
             id="path48" /><path
             d="m 4571.83,953.781 51.5977,0 0,293.039 -51.5977,0 0,-293.039 z"
             style="fill:#262726;fill-opacity:1;fill-rule:nonzero;stroke:none"
             id="path50" /><path
             d="m 2194.89,495.691 56.6289,0 0,293.051 -56.6289,0 0,-293.051 z"
             style="fill:#262726;fill-opacity:1;fill-rule:nonzero;stroke:none"
             id="path52" /><path
             d="m 2445.84,695.391 c 20.97,0 37.72,-6.879 50.24,-20.661 12.51,-13.769 18.77,-31.921 18.77,-54.429 l 0,-124.61 -51.39,0 0,119.36 c 0,12.73 -3.04,22.801 -9.13,30.211 -6.08,7.41 -14.36,11.117 -24.85,11.117 -7.98,0 -15.46,-2.348 -22.45,-7.027 -6.99,-4.692 -14.68,-12.481 -23.07,-23.391 l 0,-130.27 -51.61,0 0,195.93 51.61,0 0,-27.48 c 9.51,11.191 19.26,19.191 29.26,24.019 10,4.82 20.87,7.231 32.62,7.231"
             style="fill:#262726;fill-opacity:1;fill-rule:nonzero;stroke:none"
             id="path54" /><path
             d="m 2649.84,695.391 c 10.77,0 20.9,-1.219 30.41,-3.672 9.51,-2.449 19.58,-6.328 30.21,-11.637 l 0,-41.32 c -9.79,6.289 -20.28,11.359 -31.47,15.199 -11.18,3.848 -21.18,5.769 -29.99,5.769 -7.41,0 -13.22,-1.398 -17.41,-4.191 -4.2,-2.801 -6.3,-6.789 -6.3,-11.957 0,-2.941 1.75,-5.871 5.25,-8.812 3.49,-2.938 13.07,-8.321 28.74,-16.149 22.37,-11.332 38.07,-21.781 47.09,-31.359 9.02,-9.582 13.53,-21.082 13.53,-34.512 0,-18.879 -6.57,-33.738 -19.72,-44.57 -13.14,-10.84 -30.9,-16.258 -53.28,-16.258 -13.98,0 -27.03,1.539 -39.12,4.609 -12.1,3.078 -22.13,6.789 -30.1,11.117 l 0,43 c 25.17,-13.976 46.36,-20.968 63.56,-20.968 8.81,0 15.94,1.57 21.39,4.718 5.46,3.141 8.18,7.301 8.18,12.481 0,3.07 -0.98,5.871 -2.93,8.391 -1.96,2.519 -4.9,5.101 -8.81,7.761 -3.92,2.66 -16.16,9.02 -36.71,19.09 -15.8,7.551 -27.48,15.77 -35.03,24.649 -7.56,8.878 -11.33,19.402 -11.33,31.57 0,17.34 6.78,31.18 20.35,41.531 13.56,10.348 31.39,15.52 53.49,15.52"
             style="fill:#262726;fill-opacity:1;fill-rule:nonzero;stroke:none"
             id="path56" /><path
             d="m 2834.92,743.641 4.2,0 0,-52.02 67.12,0 0,-39.019 -67.12,0 0,-90.411 c 0,-8.812 2.65,-15.941 7.97,-21.402 5.31,-5.449 12.58,-8.18 21.81,-8.18 12.03,0 25.87,4.34 41.54,13.012 l 0,-41.32 c -18.6,-8.262 -36.08,-12.379 -52.44,-12.379 -22.1,0 -39.34,6.008 -51.71,18.039 -12.38,12.027 -18.57,28.32 -18.57,48.879 l 0,93.762 -30.62,0 0,8.386 77.82,82.653"
             style="fill:#262726;fill-opacity:1;fill-rule:nonzero;stroke:none"
             id="path58" /><path
             d="m 3014.59,691.621 0,-195.93 -51.61,0 0,195.93 51.61,0 z m -25.81,90.617 c 7.98,0 14.83,-2.867 20.56,-8.597 5.74,-5.743 8.6,-12.59 8.6,-20.559 0,-7.691 -2.83,-14.512 -8.49,-20.453 -5.67,-5.949 -12.55,-8.918 -20.67,-8.918 -7.83,0 -14.64,2.969 -20.45,8.918 -5.8,5.941 -8.7,12.762 -8.7,20.453 0,8.109 2.93,15 8.81,20.66 5.87,5.656 12.65,8.496 20.34,8.496"
             style="fill:#262726;fill-opacity:1;fill-rule:nonzero;stroke:none"
             id="path60" /><path
             d="m 3143.03,743.641 4.2,0 0,-52.02 67.12,0 0,-39.019 -67.12,0 0,-90.411 c 0,-8.812 2.66,-15.941 7.97,-21.402 5.31,-5.449 12.59,-8.18 21.82,-8.18 12.02,0 25.87,4.34 41.53,13.012 l 0,-41.32 c -18.6,-8.262 -36.08,-12.379 -52.44,-12.379 -22.1,0 -39.33,6.008 -51.71,18.039 -12.38,12.027 -18.56,28.32 -18.56,48.879 l 0,93.762 -30.63,0 0,8.386 77.82,82.653"
             style="fill:#262726;fill-opacity:1;fill-rule:nonzero;stroke:none"
             id="path62" /><path
             d="m 3319.1,691.621 0,-121.25 c 0,-12.723 3.18,-22.41 9.54,-29.051 6.37,-6.64 14.79,-9.968 25.28,-9.968 8.67,0 16.99,2.66 24.96,7.98 7.97,5.309 14.41,12.789 19.3,22.438 l 0,129.851 51.6,0 0,-195.93 -51.6,0 0,26.641 c -18.6,-20.273 -38.74,-30.41 -60.41,-30.41 -20.98,0 -37.9,6.848 -50.77,20.558 -12.86,13.7 -19.29,31.602 -19.29,53.7 l 0,125.441 51.39,0"
             style="fill:#262726;fill-opacity:1;fill-rule:nonzero;stroke:none"
             id="path64" /><path
             d="m 3576.59,743.641 4.19,0 0,-52.02 67.13,0 0,-39.019 -67.13,0 0,-90.411 c 0,-8.812 2.66,-15.941 7.97,-21.402 5.32,-5.449 12.59,-8.18 21.82,-8.18 12.03,0 25.87,4.34 41.53,13.012 l 0,-41.32 c -18.6,-8.262 -36.08,-12.379 -52.44,-12.379 -22.09,0 -39.33,6.008 -51.71,18.039 -12.37,12.027 -18.56,28.32 -18.56,48.879 l 0,93.762 -30.63,0 0,8.386 77.83,82.653"
             style="fill:#262726;fill-opacity:1;fill-rule:nonzero;stroke:none"
             id="path66" /><path
             d="m 3835.72,614.629 c -1.4,14.269 -5.73,25.422 -13.01,33.461 -7.27,8.039 -17.27,12.058 -29.99,12.058 -13.01,0 -23.46,-3.839 -31.36,-11.539 -7.9,-7.687 -12.9,-19.007 -15,-33.98 l 89.36,0 z m -45.1,80.762 c 28.81,0 51.6,-9.231 68.38,-27.692 16.79,-18.461 25.17,-43.98 25.17,-76.558 l 0,-7.762 -138.65,0 c 2.1,-17.481 8.64,-30.938 19.61,-40.379 10.98,-9.441 26.05,-14.16 45.21,-14.16 12.3,0 24.16,2.129 35.55,6.398 11.4,4.262 23.18,10.731 35.35,19.403 l 0,-38.391 c -22.94,-16.219 -50.76,-24.328 -83.49,-24.328 -30.9,0 -56.15,9.297 -75.72,27.898 -19.58,18.602 -29.37,43.352 -29.37,74.25 0,29.789 9.05,54.121 27.16,73 18.11,18.879 41.71,28.321 70.8,28.321"
             style="fill:#262726;fill-opacity:1;fill-rule:nonzero;stroke:none"
             id="path68" /><path
             d="m 2250.26,1706.88 0,-248.78 142.23,0 0,-44.26 -198.86,0 0,293.04 56.63,0"
             style="fill:#262726;fill-opacity:1;fill-rule:nonzero;stroke:none"
             id="path70" /><path
             d="m 2499.54,1609.76 0,-195.92 -51.6,0 0,195.92 51.6,0 z m -25.8,90.62 c 7.97,0 14.82,-2.87 20.55,-8.6 5.74,-5.73 8.6,-12.58 8.6,-20.56 0,-7.69 -2.83,-14.51 -8.49,-20.45 -5.66,-5.94 -12.55,-8.91 -20.66,-8.91 -7.83,0 -14.65,2.97 -20.45,8.91 -5.81,5.94 -8.71,12.76 -8.71,20.45 0,8.11 2.94,15 8.81,20.66 5.87,5.67 12.66,8.5 20.35,8.5"
             style="fill:#262726;fill-opacity:1;fill-rule:nonzero;stroke:none"
             id="path72" /><path
             d="m 2687.8,1613.54 c 20.98,0 37.73,-6.89 50.24,-20.66 12.52,-13.78 18.78,-31.92 18.78,-54.44 l 0,-124.6 -51.39,0 0,119.36 c 0,12.72 -3.05,22.79 -9.13,30.2 -6.08,7.41 -14.37,11.12 -24.86,11.12 -7.97,0 -15.45,-2.34 -22.44,-7.03 -7,-4.69 -14.69,-12.48 -23.08,-23.39 l 0,-130.26 -51.6,0 0,195.92 51.6,0 0,-27.48 c 9.51,11.19 19.27,19.19 29.26,24.02 10,4.82 20.88,7.24 32.62,7.24"
             style="fill:#262726;fill-opacity:1;fill-rule:nonzero;stroke:none"
             id="path74" /><path
             d="m 2877.92,1609.76 0,-121.24 c 0,-12.73 3.19,-22.41 9.55,-29.06 6.36,-6.64 14.79,-9.96 25.28,-9.96 8.67,0 16.98,2.65 24.96,7.97 7.97,5.32 14.4,12.8 19.3,22.44 l 0,129.85 51.6,0 0,-195.92 -51.6,0 0,26.64 c -18.6,-20.28 -38.74,-30.42 -60.42,-30.42 -20.97,0 -37.89,6.85 -50.76,20.56 -12.87,13.7 -19.3,31.6 -19.3,53.7 l 0,125.44 51.39,0"
             style="fill:#262726;fill-opacity:1;fill-rule:nonzero;stroke:none"
             id="path76" /><path
             d="m 3118.63,1609.76 48.88,-61.46 46.98,61.46 61.89,0 -78.67,-96.28 84.54,-99.64 -61.88,0 -52.86,64.82 -50.56,-64.82 -60.2,0 81.18,99.64 -81.18,96.28 61.88,0"
             style="fill:#262726;fill-opacity:1;fill-rule:nonzero;stroke:none"
             id="path78" /></g></g></g></g></svg>