<?xml version="1.0" encoding="UTF-8" standalone="no"?>
<!-- Created with Inkscape (http://www.inkscape.org/) -->

<svg
   xmlns:dc="http://purl.org/dc/elements/1.1/"
   xmlns:cc="http://creativecommons.org/ns#"
   xmlns:rdf="http://www.w3.org/1999/02/22-rdf-syntax-ns#"
   xmlns:svg="http://www.w3.org/2000/svg"
   xmlns="http://www.w3.org/2000/svg"
   xmlns:sodipodi="http://sodipodi.sourceforge.net/DTD/sodipodi-0.dtd"
   xmlns:inkscape="http://www.inkscape.org/namespaces/inkscape"
   version="1.1"
   id="svg2"
   xml:space="preserve"
   width="171.96001"
   height="75.293335"
   viewBox="0 0 171.96001 75.293335"
   sodipodi:docname="oracle-linux.svg"
   inkscape:version="0.92.1 r15371"><metadata
     id="metadata8"><rdf:RDF><cc:Work
         rdf:about=""><dc:format>image/svg+xml</dc:format><dc:type
           rdf:resource="http://purl.org/dc/dcmitype/StillImage" /><dc:title></dc:title></cc:Work></rdf:RDF></metadata><defs
     id="defs6" /><sodipodi:namedview
     pagecolor="#ffffff"
     bordercolor="#666666"
     borderopacity="1"
     objecttolerance="10"
     gridtolerance="10"
     guidetolerance="10"
     inkscape:pageopacity="0"
     inkscape:pageshadow="2"
     inkscape:window-width="748"
     inkscape:window-height="540"
     id="namedview4"
     showgrid="false"
     inkscape:zoom="3.1344076"
     inkscape:cx="85.980003"
     inkscape:cy="37.646667"
     inkscape:window-x="1340"
     inkscape:window-y="872"
     inkscape:window-maximized="0"
     inkscape:current-layer="g10" /><g
     id="g10"
     inkscape:groupmode="layer"
     inkscape:label="ink_ext_XXXXXX"
     transform="matrix(1.3333333,0,0,-1.3333333,0,75.293333)"><g
       id="g12"
       transform="scale(0.1)"><path
         d="m 1140.83,424.625 c 0.98,0 2.02,0.098 2.6,1.035 0.43,0.352 0.49,0.82 0.49,1.348 0,0.898 -0.51,1.601 -1.23,1.972 -0.84,0.333 -1.46,0.333 -2.99,0.333 h -0.84 v -4.688 h 1.97 m -1.13,7.266 c 2.15,0 3.15,-0.098 4.26,-0.411 2.79,-0.917 3.05,-3.574 3.05,-4.492 0,-0.215 -0.08,-0.738 -0.18,-1.328 -0.14,-0.625 -0.47,-1.933 -1.97,-2.793 -0.2,-0.117 -0.3,-0.215 -0.63,-0.367 l 3.69,-6.664 h -3.59 l -3.3,6.191 h -2.17 v -6.191 h -3.2 v 16.055 h 4.04 m 1.39,-22.813 c 7.91,0 14.28,6.348 14.28,14.277 0,7.93 -6.37,14.415 -14.28,14.415 -8.01,0 -14.38,-6.485 -14.38,-14.415 0,-7.929 6.37,-14.277 14.38,-14.277 m -11.35,14.336 c 0,6.231 5.02,11.289 11.35,11.289 6.29,0 11.27,-5.058 11.27,-11.289 0,-6.191 -4.98,-11.25 -11.27,-11.25 -6.33,0 -11.35,5.059 -11.35,11.25 m -99.57,-91.539 c -18.91,0 -34.842,12.691 -39.764,30.055 h 104.884 l 14.45,22.5 H 990.406 c 4.903,17.402 20.854,30.058 39.764,30.058 h 72.01 l 14.4,22.559 h -88.05 c -35.214,0 -63.788,-28.574 -63.788,-63.867 0,-35.254 28.574,-63.77 63.788,-63.77 h 75.74 l 14.4,22.465 h -88.5 M 730.035,309.41 h 75.742 l 14.336,22.465 h -88.398 c -22.91,0 -41.367,18.531 -41.367,41.305 0,22.871 18.457,41.308 41.367,41.308 h 71.953 l 14.512,22.559 h -88.145 c -35.273,0 -63.926,-28.574 -63.926,-63.867 0,-35.254 28.653,-63.77 63.926,-63.77 m -466.043,22.465 h -70.855 c -22.805,0 -41.282,18.531 -41.282,41.305 0,22.871 18.477,41.308 41.282,41.308 h 70.855 c 22.883,0 41.34,-18.437 41.34,-41.308 0,-22.774 -18.457,-41.305 -41.34,-41.305 M 191.504,309.41 h 74.187 c 35.293,0 63.711,28.516 63.711,63.77 0,35.293 -28.418,63.867 -63.711,63.867 h -74.187 c -35.254,0 -63.848,-28.574 -63.848,-63.867 0,-35.254 28.594,-63.77 63.848,-63.77 m 258.367,41.328 c 23.899,0 43.113,19.336 43.113,43.164 0,23.828 -19.214,43.145 -43.113,43.145 H 342.488 V 309.41 h 24.543 v 105.078 h 81.211 c 11.399,0 20.637,-9.199 20.637,-20.586 0,-11.367 -9.238,-20.722 -20.637,-20.722 l -69.211,0.058 73.305,-63.828 h 35.609 l -49.234,41.328 h 11.16 m 406.004,-18.789 v 105.098 h -24.59 v -115.43 c 0,-3.144 1.328,-6.23 3.633,-8.457 2.344,-2.422 5.566,-3.75 8.945,-3.75 H 955.68 l 14.57,22.539 H 855.875 M 555.484,354.41 h 65.469 l -34.59,55.82 -63.496,-100.82 h -29.004 l 77.305,120.996 c 3.301,4.903 8.965,7.871 15.156,7.871 6.055,0 11.621,-2.871 14.922,-7.652 L 678.785,309.41 h -28.926 l -13.632,22.539 h -66.289 l -14.454,22.461"
         style="fill:#ed1c24;fill-opacity:1;fill-rule:nonzero;stroke:none"
         id="path14"
         inkscape:connector-curvature="0" /><path
         d="m 505.379,127.688 h -18.047 l -20.82,29.257 -20.664,-29.257 h -16.016 l 28.965,38.285 -27.363,34.793 h 17.91 l 19.5,-27.516 20.383,27.516 h 16.152 l -28.527,-35.664 z m -141.184,73.078 v -47.024 c 0,-7.129 1.602,-16.156 15.578,-16.156 6.844,0 13.25,2.328 17.176,8.152 3.059,4.367 3.059,10.043 3.059,13.684 v 41.344 h 14.121 v -59.399 c 0,-1.453 0.293,-9.601 0.437,-13.679 h -14.265 l -0.293,12.519 c -2.617,-5.098 -7.57,-13.246 -23.293,-13.246 -18.047,0 -26.492,10.336 -26.492,24.746 v 49.059 z m -100.125,-8.446 -0.148,8.446 h 13.683 l 0.145,-11.793 c 1.602,3.054 6.848,13.246 23.438,13.246 6.554,0 26.496,-2.477 26.496,-24.895 v -49.636 h -13.977 v 46.433 c 0,4.809 -0.574,9.172 -3.926,12.52 -3.496,3.351 -8.301,4.953 -12.957,4.953 -9.902,0 -19.074,-7.133 -19.074,-21.836 v -42.07 h -13.68 z m -40.754,8.446 h 13.692 v -73.078 h -13.692 z m -1.453,31.73 h 16.453 v -14.992 h -16.453 z m -81.34,0.293 h 14.415 v -92.148 h 48.906 v -12.953 h -63.321 v 105.101"
         style="fill:#231f20;fill-opacity:1;fill-rule:nonzero;stroke:none"
         id="path16"
         inkscape:connector-curvature="0" /></g></g></svg>