<?xml version="1.0" encoding="UTF-8" standalone="no"?>
<!-- Created with Inkscape (http://www.inkscape.org/) -->

<svg
   xmlns:dc="http://purl.org/dc/elements/1.1/"
   xmlns:cc="http://creativecommons.org/ns#"
   xmlns:rdf="http://www.w3.org/1999/02/22-rdf-syntax-ns#"
   xmlns:svg="http://www.w3.org/2000/svg"
   xmlns="http://www.w3.org/2000/svg"
   xmlns:sodipodi="http://sodipodi.sourceforge.net/DTD/sodipodi-0.dtd"
   xmlns:inkscape="http://www.inkscape.org/namespaces/inkscape"
   width="239.40146mm"
   height="49.588821mm"
   viewBox="0 0 848.27288 175.70842"
   id="svg2"
   version="1.1"
   inkscape:version="0.92.3 (2405546, 2018-03-11)"
   sodipodi:docname="logo-default-vector.svg">
  <defs
     id="defs4" />
  <sodipodi:namedview
     id="base"
     pagecolor="#ffffff"
     bordercolor="#666666"
     borderopacity="1.0"
     inkscape:pageopacity="0.0"
     inkscape:pageshadow="2"
     inkscape:zoom="2"
     inkscape:cx="331.73248"
     inkscape:cy="49.680357"
     inkscape:document-units="px"
     inkscape:current-layer="text3336"
     showgrid="false"
     showguides="true"
     inkscape:guide-bbox="true"
     inkscape:window-width="1920"
     inkscape:window-height="1025"
     inkscape:window-x="0"
     inkscape:window-y="27"
     inkscape:window-maximized="1"
     fit-margin-top="0"
     fit-margin-left="0"
     fit-margin-right="0"
     fit-margin-bottom="0" />
  <metadata
     id="metadata7">
    <rdf:RDF>
      <cc:Work
         rdf:about="">
        <dc:format>image/svg+xml</dc:format>
        <dc:type
           rdf:resource="http://purl.org/dc/dcmitype/StillImage" />
        <dc:title></dc:title>
      </cc:Work>
    </rdf:RDF>
  </metadata>
  <g
     inkscape:label="Layer 1"
     inkscape:groupmode="layer"
     id="layer1"
     transform="translate(-84.421405,-372.62086)">
    <g
       id="g4815"
       transform="matrix(2.7970612,0,0,2.7970612,-151.71044,-985.38129)"
       inkscape:export-xdpi="89.919006"
       inkscape:export-ydpi="89.919006">
      <g
         aria-label="Pantacor"
         style="font-style:normal;font-weight:normal;line-height:0%;font-family:sans-serif;letter-spacing:0px;word-spacing:0px;fill:#424262;fill-opacity:1;stroke:none;stroke-width:1px;stroke-linecap:butt;stroke-linejoin:miter;stroke-opacity:1"
         id="text3336">
        <path
           d="m 189.95544,514.69612 q 0,1.97031 -0.48704,3.51998 -0.48704,1.54968 -1.32829,2.74515 -0.81912,1.17332 -1.90389,2.01458 -1.08478,0.84125 -2.28024,1.37257 -1.17333,0.53132 -2.39093,0.77484 -1.19547,0.24352 -2.25811,0.24352 h -13.01729 v -5.75595 h 13.01729 q 1.10692,-0.0886 1.99245,-0.44276 0.90767,-0.37635 1.54968,-0.99622 0.642,-0.61987 0.99622,-1.48327 0.35421,-0.88553 0.35421,-1.99244 v -2.61231 q -0.11069,-1.08478 -0.4649,-1.99245 -0.35422,-0.90766 -0.97409,-1.54967 -0.59773,-0.64201 -1.46112,-0.99622 -0.86339,-0.37636 -1.99245,-0.37636 h -12.97301 q -1.15119,0 -1.74892,0.59774 -0.59774,0.59773 -0.59774,1.72678 v 23.66579 h -5.75594 v -23.66579 q 0,-2.21382 0.79698,-3.7635 0.81911,-1.54968 2.01458,-2.50162 1.2176,-0.95195 2.63445,-1.37258 1.41685,-0.44276 2.61231,-0.44276 h 13.01729 q 1.94817,0 3.49785,0.50918 1.54968,0.48704 2.723,1.32829 1.19547,0.81912 2.01458,1.90389 0.84126,1.08478 1.37258,2.28024 0.55345,1.17333 0.79697,2.39094 0.24352,1.19546 0.24352,2.2581 z"
           style="font-style:normal;font-variant:normal;font-weight:normal;font-stretch:normal;font-size:45.33914185px;line-height:1.25;font-family:Audiowide;-inkscape-font-specification:Audiowide;fill:#424262;fill-opacity:1"
           id="path2129" />
        <path
           d="m 218.24813,525.23393 q 0,1.19546 -0.42063,2.59017 -0.42062,1.37258 -1.37257,2.56804 -0.92981,1.17333 -2.45734,1.97031 -1.50541,0.79697 -3.67495,0.79697 h -10.38285 q -1.19546,0 -2.59017,-0.42062 -1.37257,-0.42063 -2.56804,-1.35044 -1.17333,-0.95194 -1.9703,-2.45734 -0.79698,-1.52754 -0.79698,-3.69709 0,-1.19547 0.42063,-2.59018 0.42062,-1.39471 1.35043,-2.56803 0.95195,-1.19547 2.45735,-1.99245 1.52754,-0.79697 3.69708,-0.79697 h 10.38285 v 5.49028 h -10.38285 q -1.17332,0 -1.81533,0.73057 -0.64201,0.70842 -0.64201,1.77106 0,1.12905 0.73056,1.77106 0.7527,0.61987 1.77106,0.61987 h 10.33857 q 1.17332,0 1.81533,-0.70843 0.64201,-0.70842 0.64201,-1.77106 v -8.03618 q 0,-1.12905 -0.70842,-1.7932 -0.68629,-0.66415 -1.74892,-0.66415 h -12.64095 v -5.46815 h 12.64095 q 1.19546,0 2.56803,0.42063 1.39471,0.42063 2.56804,1.37257 1.19547,0.92981 1.99244,2.45735 0.79698,1.5054 0.79698,3.67495 z"
           style="font-style:normal;font-variant:normal;font-weight:normal;font-stretch:normal;font-size:45.33914185px;line-height:1.25;font-family:Audiowide;-inkscape-font-specification:Audiowide;fill:#424262;fill-opacity:1"
           id="path2131" />
        <path
           d="m 249.72873,533.15942 h -5.75595 v -13.28295 q 0,-1.12905 -0.39849,-2.01458 -0.37635,-0.90767 -1.0405,-1.54968 -0.66414,-0.64201 -1.57181,-0.97408 -0.88553,-0.35421 -1.92603,-0.35421 h -10.0729 v 18.1755 h -5.75595 v -21.07561 q 0,-0.59774 0.22138,-1.10692 0.22139,-0.53131 0.61987,-0.90766 0.39849,-0.39849 0.92981,-0.61987 0.53132,-0.22139 1.12905,-0.22139 h 12.97302 q 1.08477,0 2.28024,0.24352 1.2176,0.24352 2.39093,0.79698 1.19546,0.53132 2.2581,1.37257 1.08477,0.81912 1.90389,2.01458 0.84125,1.17333 1.3283,2.72301 0.48704,1.54968 0.48704,3.49784 z"
           style="font-style:normal;font-variant:normal;font-weight:normal;font-stretch:normal;font-size:45.33914185px;line-height:1.25;font-family:Audiowide;-inkscape-font-specification:Audiowide;fill:#424262;fill-opacity:1"
           id="path2133" />
        <path
           d="m 275.874,514.98392 h -10.05077 v 18.1755 h -5.82236 v -18.1755 h -7.48273 v -5.75595 h 7.48273 v -7.8148 h 5.82236 v 7.8148 H 275.874 Z"
           style="font-style:normal;font-variant:normal;font-weight:normal;font-stretch:normal;font-size:45.33914185px;line-height:1.25;font-family:Audiowide;-inkscape-font-specification:Audiowide;fill:#424262;fill-opacity:1"
           id="path2135" />
        <path
           d="m 303.08192,525.23393 q 0,1.19546 -0.42063,2.59017 -0.42063,1.37258 -1.37257,2.56804 -0.92981,1.17333 -2.45735,1.97031 -1.5054,0.79697 -3.67495,0.79697 h -10.38284 q -1.19546,0 -2.59017,-0.42062 -1.37258,-0.42063 -2.56804,-1.35044 -1.17333,-0.95194 -1.97031,-2.45734 -0.79697,-1.52754 -0.79697,-3.69709 0,-1.19547 0.42062,-2.59018 0.42063,-1.39471 1.35044,-2.56803 0.95194,-1.19547 2.45734,-1.99245 1.52754,-0.79697 3.69709,-0.79697 h 10.38284 v 5.49028 h -10.38284 q -1.17333,0 -1.81534,0.73057 -0.64201,0.70842 -0.64201,1.77106 0,1.12905 0.73057,1.77106 0.7527,0.61987 1.77106,0.61987 h 10.33856 q 1.17333,0 1.81534,-0.70843 0.64201,-0.70842 0.64201,-1.77106 v -8.03618 q 0,-1.12905 -0.70843,-1.7932 -0.68628,-0.66415 -1.74892,-0.66415 h -12.64094 v -5.46815 h 12.64094 q 1.19547,0 2.56804,0.42063 1.39471,0.42063 2.56804,1.37257 1.19546,0.92981 1.99244,2.45735 0.79698,1.5054 0.79698,3.67495 z"
           style="font-style:normal;font-variant:normal;font-weight:normal;font-stretch:normal;font-size:45.33914185px;line-height:1.25;font-family:Audiowide;-inkscape-font-specification:Audiowide;fill:#424262;fill-opacity:1"
           id="path2137" />
        <path
           d="m 331.21963,533.15942 h -15.60747 q -1.19546,0 -2.61231,-0.42062 -1.41685,-0.42063 -2.63446,-1.37257 -1.19546,-0.97409 -2.01458,-2.50163 -0.79697,-1.54967 -0.79697,-3.78564 v -7.79266 q 0,-0.81912 0.1771,-1.72679 0.19925,-0.90767 0.59774,-1.7932 0.39848,-0.90766 1.01836,-1.72678 0.642,-0.81911 1.52753,-1.43899 0.90767,-0.61987 2.081,-0.99622 1.17333,-0.37635 2.65659,-0.37635 h 15.60747 v 5.75595 h -15.60747 q -1.12905,0 -1.72678,0.57559 -0.5756,0.5756 -0.5756,1.77106 v 7.74839 q 0,1.12905 0.59774,1.72679 0.59773,0.59773 1.74892,0.59773 h 15.56319 z"
           style="font-style:normal;font-variant:normal;font-weight:normal;font-stretch:normal;font-size:45.33914185px;line-height:1.25;font-family:Audiowide;-inkscape-font-specification:Audiowide;fill:#424262;fill-opacity:1"
           id="path2139" />
        <path
           d="m 361.88111,525.07896 q 0,1.48326 -0.37635,2.67873 -0.37635,1.17333 -0.99622,2.081 -0.61987,0.88553 -1.43899,1.52754 -0.81911,0.61987 -1.72678,1.01835 -0.88553,0.39849 -1.81534,0.59774 -0.90766,0.1771 -1.72678,0.1771 h -10.38284 q -1.19547,0 -2.61231,-0.42062 -1.41685,-0.42063 -2.63446,-1.37257 -1.19546,-0.97409 -2.01458,-2.50163 -0.79697,-1.54967 -0.79697,-3.78564 v -7.79266 q 0,-2.21383 0.79697,-3.74137 0.81912,-1.54968 2.01458,-2.50162 1.21761,-0.97408 2.63446,-1.39471 1.41684,-0.42063 2.61231,-0.42063 h 10.38284 q 2.21383,0 3.7635,0.79698 1.54968,0.79698 2.50163,2.01458 0.95194,1.19547 1.37257,2.61231 0.44276,1.41685 0.44276,2.63446 z m -5.75594,-7.74839 q 0,-1.19546 -0.59774,-1.77106 -0.59773,-0.57559 -1.72678,-0.57559 h -10.33856 q -1.15119,0 -1.74893,0.59773 -0.59773,0.5756 -0.59773,1.70465 v 7.79266 q 0,1.12905 0.59773,1.72679 0.59774,0.59773 1.74893,0.59773 h 10.33856 q 1.17333,0 1.74892,-0.59773 0.5756,-0.59774 0.5756,-1.72679 z"
           style="font-style:normal;font-variant:normal;font-weight:normal;font-stretch:normal;font-size:45.33914185px;line-height:1.25;font-family:Audiowide;-inkscape-font-specification:Audiowide;fill:#424262;fill-opacity:1"
           id="path2141" />
        <path
           d="m 387.69431,514.98392 h -12.95087 q -1.17333,0 -1.77106,0.59773 -0.59774,0.5756 -0.59774,1.70465 v 15.87312 H 366.6187 V 517.2863 q 0,-1.48327 0.37635,-2.65659 0.37635,-1.17333 0.99622,-2.05886 0.64201,-0.90767 1.46112,-1.52754 0.81912,-0.64201 1.70465,-1.0405 0.90767,-0.39849 1.81534,-0.57559 0.9298,-0.19925 1.72678,-0.19925 h 12.99515 z"
           style="font-style:normal;font-variant:normal;font-weight:normal;font-stretch:normal;font-size:45.33914185px;line-height:1.25;font-family:Audiowide;-inkscape-font-specification:Audiowide;fill:#424262;fill-opacity:1"
           id="path2143" />
      </g>
      <g
         style="fill:#424262;fill-opacity:1"
         transform="matrix(0.12548805,0,0,0.12548805,84.421408,484.79494)"
         id="g3560">
        <g
           style="fill:#424262;fill-opacity:1"
           id="g3470">
          <g
             style="fill:#424262;fill-opacity:1"
             id="g3472">
            <path
               style="fill:#424262;fill-opacity:1"
               inkscape:connector-curvature="0"
               d="m 261.702,5.701 c -28.438,0 -51.574,23.136 -51.574,51.576 0,28.438 23.136,51.574 51.574,51.574 28.438,0 51.574,-23.136 51.574,-51.574 0,-28.438 -23.135,-51.576 -51.574,-51.576 z"
               id="path3474" />
          </g>
        </g>
        <g
           style="fill:#424262;fill-opacity:1"
           id="g3476">
          <g
             style="fill:#424262;fill-opacity:1"
             id="g3478">
            <path
               style="fill:#424262;fill-opacity:1"
               inkscape:connector-curvature="0"
               d="M 51.574,204.426 C 23.136,204.425 0,227.562 0,256.001 c 0,28.439 23.136,51.574 51.574,51.574 28.438,0 51.576,-23.136 51.576,-51.574 0,-28.438 -23.136,-51.575 -51.576,-51.575 z"
               id="path3480" />
          </g>
        </g>
        <g
           style="fill:#424262;fill-opacity:1"
           id="g3482">
          <g
             style="fill:#424262;fill-opacity:1"
             id="g3484">
            <path
               style="fill:#424262;fill-opacity:1"
               inkscape:connector-curvature="0"
               d="m 261.702,403.15 c -28.438,0 -51.574,23.136 -51.574,51.574 0,28.438 23.136,51.574 51.574,51.574 28.438,0 51.574,-23.136 51.574,-51.574 0,-28.438 -23.135,-51.574 -51.574,-51.574 z"
               id="path3486" />
          </g>
        </g>
        <g
           style="fill:#424262;fill-opacity:1"
           id="g3488">
          <g
             style="fill:#424262;fill-opacity:1"
             id="g3490">
            <path
               style="fill:#424262;fill-opacity:1"
               inkscape:connector-curvature="0"
               d="m 460.426,204.425 c -28.438,0 -51.576,23.136 -51.576,51.574 0,28.438 23.136,51.574 51.576,51.574 28.438,0 51.574,-23.136 51.574,-51.574 0,-28.437 -23.136,-51.574 -51.574,-51.574 z"
               id="path3492" />
          </g>
        </g>
        <g
           style="fill:#424262;fill-opacity:1"
           id="g3494">
          <g
             style="fill:#424262;fill-opacity:1"
             id="g3496">
            <path
               style="fill:#424262;fill-opacity:1"
               inkscape:connector-curvature="0"
               d="m 147.918,364.082 c -20.109,-20.108 -52.828,-20.108 -72.936,0 -9.742,9.74 -15.107,22.694 -15.107,36.47 0,13.776 5.365,26.727 15.106,36.469 10.056,10.056 23.26,15.081 36.469,15.081 13.205,0 26.414,-5.028 36.469,-15.081 20.108,-20.111 20.108,-52.83 -0.001,-72.939 z"
               id="path3498" />
          </g>
        </g>
        <g
           style="fill:#424262;fill-opacity:1"
           id="g3500">
          <g
             style="fill:#424262;fill-opacity:1"
             id="g3502">
            <path
               style="fill:#424262;fill-opacity:1"
               inkscape:connector-curvature="0"
               d="m 155.981,74.982 c -9.74,-9.742 -22.692,-15.105 -36.469,-15.105 -13.775,0 -26.727,5.365 -36.469,15.105 -20.109,20.109 -20.109,52.827 0,72.938 10.056,10.053 23.262,15.081 36.47,15.081 13.206,0 26.414,-5.028 36.469,-15.081 9.742,-9.742 15.106,-22.694 15.106,-36.469 0,-13.777 -5.365,-26.727 -15.107,-36.469 z"
               id="path3504" />
          </g>
        </g>
        <g
           style="fill:#424262;fill-opacity:1"
           id="g3506">
          <g
             style="fill:#424262;fill-opacity:1"
             id="g3508">
            <path
               style="fill:#424262;fill-opacity:1"
               inkscape:connector-curvature="0"
               d="M 437.019,356.016 C 416.91,335.91 384.19,335.91 364.08,356.017 c -20.108,20.11 -20.108,52.83 0,72.937 9.742,9.742 22.694,15.106 36.469,15.106 13.776,0 26.729,-5.364 36.469,-15.106 9.742,-9.74 15.107,-22.692 15.107,-36.469 0,-13.775 -5.365,-26.726 -15.106,-36.469 z"
               id="path3510" />
          </g>
        </g>
        <g
           style="fill:#424262;fill-opacity:1"
           id="g3512">
          <g
             style="fill:#424262;fill-opacity:1"
             id="g3514">
            <path
               style="fill:#424262;fill-opacity:1"
               inkscape:connector-curvature="0"
               d="M 437.019,74.982 C 427.277,65.24 414.327,59.875 400.55,59.875 c -13.775,0 -26.727,5.365 -36.469,15.106 -20.109,20.109 -20.109,52.827 0,72.937 10.055,10.055 23.261,15.082 36.469,15.082 13.206,0 26.414,-5.028 36.469,-15.081 9.742,-9.742 15.106,-22.694 15.106,-36.469 0,-13.776 -5.365,-26.726 -15.106,-36.468 z"
               id="path3516" />
          </g>
        </g>
        <g
           style="fill:#424262;fill-opacity:1"
           id="g3518">
          <g
             style="fill:#424262;fill-opacity:1"
             id="g3520">
            <path
               style="fill:#424262;fill-opacity:1"
               inkscape:connector-curvature="0"
               d="m 356.25,276.406 43.53,0 c -2.09,-6.323 -3.236,-13.072 -3.236,-20.089 0,-4.299 0.433,-8.497 1.242,-12.56 l -40.264,0 c -2.275,-17.439 -9.207,-33.426 -19.516,-46.676 l 30.351,-30.353 c -4.521,-2.679 -8.784,-5.956 -12.668,-9.84 -4.053,-4.052 -7.482,-8.559 -10.271,-13.394 l -31.525,31.525 c -11.883,-7.655 -25.537,-12.772 -40.208,-14.595 l 0,-40.087 c -3.884,0.737 -7.887,1.139 -11.984,1.139 -7.229,0 -14.176,-1.219 -20.665,-3.432 l 0,43.858 c -12.197,2.668 -23.545,7.629 -33.551,14.432 L 175.04,143.889 c -2.749,4.685 -6.104,9.056 -10.046,13 -3.995,3.995 -8.393,7.346 -13.062,10.065 l 32.015,32.015 c -9.516,12.868 -15.897,28.172 -18.064,44.786 l -51.147,0 c 0.809,4.063 1.242,8.263 1.242,12.56 0,7.015 -1.147,13.764 -3.236,20.089 l 54.413,0 c 2.464,11.605 7.025,22.437 13.251,32.103 l -36.98,36.98 c 4.795,2.753 9.313,6.164 13.406,10.257 3.884,3.884 7.162,8.146 9.841,12.669 l 35.794,-35.794 c 11.169,8.69 24.28,14.987 38.57,18.111 l 0,43.858 c 6.49,-2.213 13.436,-3.431 20.665,-3.431 4.096,0 8.098,0.401 11.983,1.139 l 0,-40.086 c 16.837,-2.092 32.347,-8.513 45.364,-18.138 l 25.213,25.213 c 2.721,-4.669 6.071,-9.067 10.067,-13.064 3.978,-3.979 8.358,-7.32 13.005,-10.034 l -25.652,-25.652 c 6.913,-10.165 11.932,-21.71 14.568,-34.129 z"
               id="path3522" />
          </g>
        </g>
        <g
           style="fill:#424262;fill-opacity:1"
           id="g3524" />
        <g
           style="fill:#424262;fill-opacity:1"
           id="g3526" />
        <g
           style="fill:#424262;fill-opacity:1"
           id="g3528" />
        <g
           style="fill:#424262;fill-opacity:1"
           id="g3530" />
        <g
           style="fill:#424262;fill-opacity:1"
           id="g3532" />
        <g
           style="fill:#424262;fill-opacity:1"
           id="g3534" />
        <g
           style="fill:#424262;fill-opacity:1"
           id="g3536" />
        <g
           style="fill:#424262;fill-opacity:1"
           id="g3538" />
        <g
           style="fill:#424262;fill-opacity:1"
           id="g3540" />
        <g
           style="fill:#424262;fill-opacity:1"
           id="g3542" />
        <g
           style="fill:#424262;fill-opacity:1"
           id="g3544" />
        <g
           style="fill:#424262;fill-opacity:1"
           id="g3546" />
        <g
           style="fill:#424262;fill-opacity:1"
           id="g3548" />
        <g
           style="fill:#424262;fill-opacity:1"
           id="g3550" />
        <g
           style="fill:#424262;fill-opacity:1"
           id="g3552" />
      </g>
    </g>
  </g>
</svg>
