<?xml version="1.0" encoding="UTF-8" standalone="no"?>
<svg
   xmlns:dc="http://purl.org/dc/elements/1.1/"
   xmlns:cc="http://creativecommons.org/ns#"
   xmlns:rdf="http://www.w3.org/1999/02/22-rdf-syntax-ns#"
   xmlns:svg="http://www.w3.org/2000/svg"
   xmlns="http://www.w3.org/2000/svg"
   viewBox="0 0 742.20618 156.21976"
   height="156.21976"
   width="742.20618"
   xml:space="preserve"
   version="1.1"
   id="svg3355"><metadata
     id="metadata3361"><rdf:RDF><cc:Work
         rdf:about=""><dc:format>image/svg+xml</dc:format><dc:type
           rdf:resource="http://purl.org/dc/dcmitype/StillImage" /><dc:title></dc:title></cc:Work></rdf:RDF></metadata><defs
     id="defs3359"><clipPath
       id="clipPath3371"
       clipPathUnits="userSpaceOnUse"><path
         id="path3373"
         d="m 0,358 595,0 0,126 -595,0 0,-126 z" /></clipPath></defs><g
     transform="matrix(1.25,0,0,-1.25,-0.454079,605)"
     id="g3363"><g
       id="g3365" /><g
       id="g3367"><g
         clip-path="url(#clipPath3371)"
         id="g3369"><path
           id="path3375"
           style="fill:#231f20;fill-opacity:1;fill-rule:nonzero;stroke:none"
           d="m 184.6755,389.7292 -5.2147,0.0363 c -0.3207,0 -0.6564,0.004 -1.0535,-0.0476 -2.0393,-0.1391 -3.7704,-0.7027 -4.9516,-1.9829 -1.1788,-1.2852 -1.626,-3.074 -1.626,-5.2774 l 0,-8.9901 c -0.0463,-0.228 -0.0513,-0.4096 -0.0551,-0.694 0.004,-0.9044 0.1992,-2.519 1.3253,-4.0021 1.1123,-1.4794 3.1754,-2.6468 6.3408,-2.6468 0.0301,0 0.0602,0 0.0902,0.001 l 11.042,0 c 0.2843,0 0.5561,0.109 0.7616,0.3132 0.2004,0.2042 0.3131,0.4735 0.3131,0.7616 l 0,1.2614 c 0,0.2856 -0.1127,0.5574 -0.3131,0.7628 -0.2055,0.2017 -0.4748,0.3132 -0.7616,0.3132 l -11.3551,0 c -1.7224,0 -2.5679,0.3069 -3.0039,0.7616 -0.4572,0.4459 -0.8029,1.4142 -0.8893,3.228 l -0.0188,0.2105 15.6955,6.8669 c 0.3933,0.1741 0.6463,0.5587 0.6463,0.9858 l 0,0.5925 c -0.004,2.4527 -0.4033,4.3466 -1.6297,5.6945 -1.2476,1.3415 -3.0802,1.81 -5.3424,1.8514 z m 3.5549,-6.5676 -12.986,-5.6769 0,5.3299 c 0.0138,1.4681 0.3345,2.1821 0.8969,2.6443 0.5637,0.476 1.6986,0.8142 3.575,0.8142 l 4.3892,0 c 1.6034,0 2.6155,-0.3281 3.1842,-0.7929 0.5612,-0.4622 0.8819,-1.1073 0.9432,-2.2798 0,-0.0125 0,-0.025 -0.002,-0.0388 z m 30.067,6.5638 -2.1283,0 c -1.8539,0.0163 -3.471,-0.6526 -4.5758,-1.8627 -1.0948,1.2051 -2.7132,1.879 -4.5721,1.8627 l -2.1308,0 c -2.0543,0.01 -3.8668,-0.58 -5.1082,-1.9115 -1.2426,-1.3316 -1.8063,-3.2418 -1.8063,-5.593 l 0,-15.0203 c 0,-0.2881 0.114,-0.5587 0.3169,-0.7616 0.2067,-0.2042 0.4748,-0.3169 0.7629,-0.3169 l 1.2601,0 c 0.2869,0 0.5575,0.1127 0.7629,0.3169 0.2017,0.2029 0.3131,0.4735 0.3131,0.7616 l 0,15.614 c 0.1378,2.5855 0.9934,3.3132 3.5788,3.4585 l 2.0506,0 c 0.2229,0 0.511,-0.0338 0.7227,-0.0851 0.8606,-0.233 1.2101,-0.4923 1.5145,-0.9959 0.3031,-0.5148 0.5148,-1.4718 0.5123,-3.0075 l 0,-14.984 c 0,-0.2881 0.109,-0.5587 0.3132,-0.7616 0.2041,-0.2042 0.4734,-0.3169 0.7616,-0.3169 l 1.2989,0 c 0.2881,0 0.5587,0.1127 0.7629,0.3169 0.2017,0.2029 0.3144,0.4735 0.3144,0.7616 l 0,14.984 c 0.1303,3.0401 0.5274,3.4585 2.1921,4.0034 0.2042,0.0513 0.481,0.0851 0.7553,0.0851 l 2.0481,0 c 2.2898,-0.1227 3.218,-0.9006 3.3395,-3.4585 l 0,-15.614 c 0,-0.2881 0.1127,-0.5587 0.3169,-0.7616 0.2017,-0.2042 0.4748,-0.3169 0.7616,-0.3169 l 1.2614,0 c 0.2844,0 0.5574,0.1127 0.7616,0.3169 0.2029,0.2029 0.3144,0.4735 0.3144,0.7616 l 0,15.0203 c 0,2.3449 -0.5348,4.2426 -1.7286,5.578 -1.1975,1.3365 -2.965,1.9365 -4.9466,1.9265 z m 26.6635,0.002 -9.0966,0 0,5.8235 c 0,0.2881 -0.1128,0.5574 -0.3144,0.7616 -0.2042,0.2042 -0.4748,0.3131 -0.7616,0.3131 l -1.2614,0 c -0.2844,0 -0.5637,-0.1114 -0.7667,-0.3131 -0.1979,-0.2004 -0.3119,-0.4773 -0.3119,-0.7616 l 0,-22.3582 1.0786,0 -1.0761,-0.0652 c 0.1115,-3.4723 2.3274,-6.7003 6.867,-6.9621 0.2956,-0.0451 0.6,-0.0413 0.8705,-0.0413 l 4.7726,0 c 0.1252,-0.002 0.2492,-0.004 0.3695,-0.004 2.6431,0 4.279,0.5775 5.5241,2.0618 1.1662,1.2552 1.646,2.7821 1.6121,5.1671 l 0,9.1505 c 0.0176,2.2623 -0.6501,4.0861 -2.0405,5.3613 -1.2739,1.2614 -3.0076,1.8915 -5.4652,1.8664 z m 4.0886,-16.179 c 0,-1.7512 -0.327,-2.6956 -0.8168,-3.1729 -0.4734,-0.4923 -1.4229,-0.838 -3.233,-0.838 l -4.4944,0 c -0.1604,-0.002 -0.4071,0.0313 -0.7466,0.0401 -3.0614,0.4772 -3.7654,1.2351 -3.8944,3.6952 l 0,12.9585 9.1742,0 c 1.4343,-0.01 1.8978,-0.1666 2.4013,-0.4898 1.2702,-0.8843 1.5458,-1.4342 1.6097,-3.3232 l 0,-8.8699 z m 23.7373,16.1803 -5.2184,0.0363 c -0.3182,0 -0.6552,0.004 -1.0485,-0.0476 -2.0468,-0.1391 -3.7717,-0.7027 -4.9579,-1.9829 -1.1762,-1.2852 -1.6247,-3.074 -1.6247,-5.2774 l 0,-8.9914 c -0.0463,-0.2292 -0.0501,-0.4083 -0.0538,-0.6889 0.004,-0.9057 0.1979,-2.5165 1.3215,-4.0034 1.1123,-1.4794 3.1779,-2.6493 6.3446,-2.6493 0.0288,0 0.0601,0 0.0902,10e-4 l 11.0419,0 c 0.2869,0 0.5562,0.109 0.7604,0.3132 0.2054,0.2042 0.3144,0.4735 0.3144,0.7616 l 0,1.2614 c 0,0.2856 -0.109,0.5574 -0.3144,0.7628 -0.2042,0.2017 -0.4735,0.3132 -0.7604,0.3132 l -11.3563,0 c -1.7212,0 -2.5717,0.3069 -3.0013,0.7616 -0.4598,0.4459 -0.8055,1.4142 -0.8919,3.228 l -0.0176,0.2105 15.698,6.8669 c 0.3908,0.1741 0.6439,0.5587 0.6439,0.9858 l 0,0.5925 c 0,2.4527 -0.3996,4.3466 -1.631,5.6945 -1.2438,1.3415 -3.0789,1.81 -5.3387,1.8514 z m 3.5512,-6.5676 -12.9847,-5.6769 0,5.3299 c 0.015,1.4681 0.3332,2.1821 0.8956,2.6443 0.5649,0.476 1.6973,0.8142 3.575,0.8142 l 4.3905,0 c 1.5996,0 2.6142,-0.3281 3.1854,-0.7929 0.5599,-0.4622 0.8806,-1.1073 0.9407,-2.2798 0,-0.0125 0,-0.025 -0.002,-0.0388 z m 28.6903,13.4696 -1.2614,0 c -0.2868,0 -0.5637,-0.1165 -0.7653,-0.3182 -0.1992,-0.2004 -0.3132,-0.4773 -0.3132,-0.7616 l 0,-5.8235 -9.0954,0 c -2.4251,0.0226 -4.185,-0.5988 -5.4815,-1.8802 -1.3315,-1.2614 -2.0393,-3.0689 -2.0217,-5.3475 l 0,-9.0753 c -0.0426,-0.2944 -0.0564,-0.5787 -0.0564,-0.8493 0,-1.7311 0.6639,-3.2719 1.6685,-4.398 1.2739,-1.4756 2.8823,-2.0568 5.5592,-2.0568 0.1215,0 0.2443,0.001 0.3695,0.004 l 4.7312,0 c 0.2793,0 0.5963,-0.006 0.9645,0.0501 2.0782,0.1578 3.8381,0.7641 5.0544,2.0029 1.2201,1.2414 1.7286,2.9863 1.7211,5.0156 l 0,22.3582 c 0,0.2881 -0.1115,0.5562 -0.3131,0.7616 -0.2055,0.2042 -0.4735,0.3182 -0.7604,0.3182 z m -2.3399,-23.3579 c -0.1315,-2.4614 -0.8317,-3.218 -3.8969,-3.6952 -0.3382,-0.007 -0.5863,-0.0401 -0.7466,-0.0401 l -4.4519,0 c -1.8275,0 -2.7933,0.3445 -3.2718,0.838 -0.4936,0.4798 -0.8205,1.4217 -0.8167,3.1729 l 0,8.8699 c 0.0576,1.8664 0.372,2.4439 1.6046,3.3195 0.5023,0.3269 0.972,0.4835 2.4025,0.4935 l 9.1768,0 0,-12.9585 z m 29.8277,23.3579 -1.2602,0 c -0.2843,0 -0.5637,-0.1165 -0.7641,-0.3182 -0.2004,-0.2004 -0.3157,-0.4773 -0.3157,-0.7616 l 0,-5.8235 -9.0953,0 c -2.4213,0.0226 -4.18,-0.5988 -5.479,-1.8802 -1.3316,-1.2614 -2.0393,-3.0689 -2.0243,-5.3475 l 0,-9.0753 c -0.0401,-0.2944 -0.0538,-0.5787 -0.0538,-0.8493 0,-1.7311 0.6614,-3.2719 1.6685,-4.398 1.2764,-1.4756 2.886,-2.0568 5.5604,-2.0568 0.1228,0 0.2455,0.001 0.3695,0.004 l 4.7312,0 c 0.2756,0 0.5963,-0.006 0.962,0.0501 2.0807,0.1578 3.8381,0.7641 5.0569,2.0029 1.2188,1.2414 1.7261,2.9863 1.7211,5.0156 l 0,22.3582 c 0,0.2881 -0.1115,0.5562 -0.3156,0.7616 -0.2042,0.2042 -0.4723,0.3182 -0.7616,0.3182 z m -2.34,-23.3579 c -0.1315,-2.4614 -0.8292,-3.218 -3.8919,-3.6952 -0.3407,-0.007 -0.5875,-0.0401 -0.7465,-0.0401 l -4.4569,0 c -1.8276,0 -2.7896,0.3445 -3.2694,0.838 -0.4948,0.4798 -0.8205,1.4217 -0.8179,3.1729 l 0,8.8699 c 0.0588,1.8664 0.3707,2.4439 1.6046,3.3195 0.5023,0.3269 0.9733,0.4835 2.4075,0.4935 l 9.1705,0 0,-12.9585 z m 23.7387,16.4521 -5.2185,0.0426 c -0.3182,0 -0.6551,0 -1.0522,-0.0514 -2.0443,-0.1365 -3.7704,-0.7027 -4.9529,-1.9854 -1.1775,-1.2827 -1.6259,-3.0714 -1.6234,-5.2723 l 0,-8.9739 c -0.0476,-0.2417 -0.0539,-0.4234 -0.0564,-0.7152 0.002,-0.9069 0.1992,-2.5166 1.3253,-4.0009 1.1173,-1.4806 3.1842,-2.6468 6.3521,-2.6468 0.0275,0 0.0526,0 0.0802,0.002 l 11.0394,0 c 0.2881,0 0.5574,0.1115 0.7629,0.3131 0.2054,0.2042 0.3144,0.4773 0.3144,0.7616 l 0,1.2614 c 0,0.2894 -0.109,0.56 -0.3144,0.7616 -0.2055,0.2055 -0.4748,0.3169 -0.7629,0.3169 l -11.3539,0 c -1.7261,0 -2.5716,0.3044 -3.0025,0.7616 -0.4597,0.446 -0.8042,1.4118 -0.8919,3.2243 l -0.0175,0.2142 15.6992,6.8644 c 0.3896,0.1742 0.6439,0.5587 0.6439,0.9884 l 0,0.5937 c -0.005,2.4477 -0.4021,4.3429 -1.631,5.6932 -1.2438,1.3416 -3.0789,1.8101 -5.3399,1.8464 z m 3.5524,-6.5663 -12.986,-5.6757 0,5.3287 c 0.0175,1.4719 0.3332,2.1859 0.8969,2.6481 0.5637,0.476 1.6973,0.8117 3.5737,0.8117 l 4.3905,0 c 1.5996,0.004 2.6155,-0.3282 3.1855,-0.7942 0.5586,-0.4609 0.8793,-1.1023 0.9407,-2.276 0,-0.0125 0,-0.0263 -0.001,-0.0426 z m 28.6865,13.4721 -1.2601,0 c -0.2843,0 -0.5637,-0.1165 -0.7641,-0.3182 -0.2004,-0.2004 -0.3157,-0.4773 -0.3157,-0.7616 l 0,-5.8235 -9.0941,0 c -2.4238,0.0226 -4.1813,-0.5988 -5.4777,-1.8802 -1.3353,-1.2614 -2.0418,-3.0689 -2.0268,-5.3475 l 0,-9.0816 c -0.0388,-0.2918 -0.0539,-0.5737 -0.0539,-0.843 0,-1.7311 0.6627,-3.2719 1.666,-4.398 1.279,-1.4756 2.8861,-2.0568 5.5642,-2.0568 0.1203,0 0.2443,0.001 0.3696,0.004 l 4.7299,0 c 0.2768,0 0.5975,-0.006 0.962,0.0501 2.0819,0.1578 3.8381,0.7641 5.0581,2.0029 1.2151,1.2414 1.7262,2.9863 1.7187,5.0156 l 0,22.3582 c 0,0.2881 -0.109,0.5562 -0.3132,0.7616 -0.2042,0.2042 -0.4747,0.3182 -0.7629,0.3182 z m -2.3399,-23.3579 c -0.1302,-2.4614 -0.8292,-3.218 -3.8906,-3.6952 -0.3408,-0.007 -0.5913,-0.0401 -0.7479,-0.0401 l -4.4556,0 c -1.8288,0 -2.7921,0.3445 -3.2693,0.838 -0.4948,0.4798 -0.823,1.4217 -0.818,3.1729 l 0,8.8699 c 0.0564,1.8664 0.3708,2.4439 1.6034,3.3195 0.5035,0.3269 0.9733,0.4835 2.4075,0.4935 l 9.1705,0 0,-12.9585 z m 42.3703,16.4521 -10.3693,0 c -3.5499,0.1152 -6.0327,-1.5057 -6.7191,-4.4644 -0.1052,-0.471 -0.1528,-0.9069 -0.1528,-1.3428 l 0,-1.3403 c -0.0126,-1.9078 0.5323,-3.5825 1.8175,-4.6961 1.2827,-1.1074 3.0677,-1.5433 5.2924,-1.547 l 5.0481,0 c 1.1399,-0.002 1.6447,-0.2293 1.914,-0.5136 0.2819,-0.2869 0.5462,-0.9395 0.5963,-2.1996 l 0.0802,-1.0986 c -0.005,-0.1954 -0.005,-0.4196 -0.0326,-0.5925 -0.0952,-1.0472 -0.362,-1.542 -0.7203,-1.8489 -0.3582,-0.3119 -0.9921,-0.5424 -2.0756,-0.5424 l -10.7651,0 c -0.2856,0 -0.5649,-0.1165 -0.7629,-0.3144 -0.2004,-0.2004 -0.3156,-0.4797 -0.3156,-0.7641 l 0,-1.2614 c 0,-0.2893 0.1115,-0.5574 0.3156,-0.7616 0.203,-0.2029 0.4748,-0.3156 0.7629,-0.3156 l 10.7275,0 c 0.1103,-0.002 0.2205,-0.005 0.3282,-0.005 2.479,0 4.3003,0.9895 5.2724,2.9825 0.5098,0.9069 0.6839,1.9541 0.6776,3.5023 l 0,1.0635 c 0.002,1.8489 -0.471,3.436 -1.5319,4.5571 -1.0573,1.1324 -2.6043,1.6547 -4.3554,1.6472 l -5.1246,0 c -1.6271,-0.006 -2.5779,0.3006 -3.0263,0.6789 -0.4422,0.3683 -0.6952,0.9057 -0.7078,2.0669 l 0,1.3428 c 0.004,0.714 0.327,1.3628 0.9821,1.8564 0.6414,0.4321 0.5036,0.4196 2.5165,0.4572 l 10.328,0 c 0.2881,0 0.5612,0.1127 0.7628,0.3169 0.2042,0.2017 0.3157,0.4735 0.3157,0.7629 l 0,1.3002 c 0,0.2843 -0.1115,0.5549 -0.3157,0.7578 -0.2016,0.2042 -0.4747,0.3157 -0.7628,0.3157 z m 26.0322,0 -1.2614,0 c -0.2844,0 -0.5624,-0.1165 -0.7641,-0.3144 -0.2004,-0.2004 -0.3144,-0.4773 -0.3144,-0.7629 l 0,-19.1101 -9.1355,0 c -1.5019,0.0263 -1.9892,0.2317 -2.6881,0.8042 -0.704,0.6463 -1.0222,1.2814 -1.0447,2.6556 l 0,15.6503 c 0,0.2894 -0.1128,0.5625 -0.3144,0.7629 -0.2055,0.2029 -0.4748,0.3144 -0.7629,0.3144 l -1.2601,0 c -0.2869,0 -0.5612,-0.1165 -0.7641,-0.3144 -0.1992,-0.2004 -0.3132,-0.4773 -0.3132,-0.7629 l 0,-15.6503 c -0.0288,-2.1921 0.6752,-3.9759 2.1282,-5.2573 1.299,-1.1637 2.8097,-1.6523 5.0193,-1.6184 l 9.1355,0 0,-0.5399 c -0.0439,-1.309 -0.1366,-1.517 -0.8268,-2.271 -0.7515,-0.6426 -0.7616,-0.6953 -2.5516,-0.7479 l -11.8273,0 c -0.2869,0 -0.5612,-0.1177 -0.7641,-0.3181 -0.1992,-0.1992 -0.3132,-0.4785 -0.3132,-0.7641 l 0,-1.3779 c 0,-0.2894 0.1115,-0.56 0.3132,-0.7641 0.2054,-0.203 0.4747,-0.3144 0.7641,-0.3144 l 11.806,0 c 2.0193,0 3.7667,0.5937 4.988,1.7925 1.2288,1.2 1.8326,2.9236 1.8276,4.8827 l 0,22.9482 c 0,0.2894 -0.1115,0.5625 -0.3182,0.7629 -0.2004,0.2029 -0.471,0.3144 -0.7578,0.3144 z m 24.6518,0 -10.3706,0 c -3.5499,0.114 -6.0351,-1.5057 -6.7216,-4.4644 -0.1052,-0.4722 -0.1528,-0.9069 -0.1528,-1.3441 l 0,-1.3378 c -0.009,-1.909 0.5336,-3.5837 1.8176,-4.6973 1.2814,-1.1061 3.0677,-1.5445 5.2923,-1.5445 l 5.0469,0 c 1.1399,-0.006 1.6459,-0.2318 1.914,-0.5174 0.2856,-0.2843 0.5474,-0.9382 0.5975,-2.2008 l 0.0802,-1.0948 c -0.002,-0.1967 -0.006,-0.4222 -0.0288,-0.5988 -0.099,-1.0372 -0.3658,-1.5345 -0.7215,-1.8476 -0.3621,-0.3069 -0.9934,-0.5349 -2.0769,-0.5399 l -10.7639,0 c -0.2868,0 -0.5637,-0.1153 -0.7666,-0.3144 -0.1992,-0.1979 -0.3144,-0.4785 -0.3144,-0.7616 l 0,-1.2627 c 0,-0.2868 0.1127,-0.5561 0.3182,-0.7603 0.2029,-0.2029 0.4722,-0.3169 0.7628,-0.3169 l 10.7251,0 c 0.1114,-0.002 0.2217,-0.004 0.3294,-0.004 2.4815,-10e-4 4.3015,0.9858 5.2711,2.98 0.511,0.9057 0.6839,1.9529 0.6776,3.5036 l 0,1.0648 c 0.004,1.8463 -0.4697,3.4347 -1.5294,4.5595 -1.0597,1.1274 -2.6055,1.651 -4.3567,1.6447 l -5.127,0 c -1.6259,-0.007 -2.5767,0.2969 -3.0263,0.6765 -0.4397,0.3695 -0.694,0.9069 -0.7065,2.0681 l 0,1.344 c 0.005,0.714 0.3282,1.3616 0.9845,1.8539 0.6364,0.4334 0.5036,0.4209 2.5128,0.4585 l 10.333,0 c 0.2856,0 0.5549,0.114 0.7603,0.3144 0.2029,0.2054 0.3169,0.476 0.3169,0.7629 l 0,1.3014 c 0,0.2856 -0.114,0.5587 -0.3169,0.7604 -0.2054,0.2029 -0.4747,0.3144 -0.7603,0.3144 z m 15.817,0 -4.9993,0 0.003,5.8648 c 0,0.2856 -0.1115,0.5587 -0.3144,0.7616 -0.2054,0.2017 -0.4722,0.3144 -0.7629,0.3144 l -1.2614,0 c -0.2818,0 -0.5611,-0.1152 -0.7616,-0.3144 -0.2004,-0.2004 -0.3144,-0.476 -0.3144,-0.7616 l 0,-28.3896 c 0,-0.2881 0.1115,-0.5574 0.3144,-0.7629 0.203,-0.2029 0.4748,-0.3156 0.7616,-0.3156 l 1.2614,0 c 0.2856,0 0.5575,0.1127 0.7629,0.3156 0.2029,0.2055 0.3144,0.4748 0.3144,0.7629 l 0,19.0725 4.9968,0 c 0.2856,0 0.5561,0.109 0.7616,0.312 0.2029,0.2066 0.3144,0.4772 0.3144,0.7641 l 0,1.2989 c 0,0.2894 -0.1115,0.5587 -0.3144,0.7616 -0.2055,0.2055 -0.476,0.3157 -0.7616,0.3157 z m 16.5873,0.002 -5.2185,0.0376 c -0.3206,0 -0.6563,0.004 -1.0522,-0.0476 -2.0405,-0.1378 -3.7704,-0.7027 -4.9529,-1.9854 -1.1775,-1.2815 -1.6271,-3.0727 -1.6234,-5.2749 l 0,-8.9851 c -0.0501,-0.2355 -0.0526,-0.4134 -0.0589,-0.7027 0.006,-0.9069 0.1992,-2.5166 1.3266,-3.9984 1.1161,-1.4806 3.1817,-2.6468 6.3546,-2.6468 l 11.1208,0 c 0.2831,0 0.5562,0.1102 0.7604,0.3131 0.2017,0.2055 0.3156,0.4773 0.3156,0.7629 l 0,1.2614 c 0,0.2856 -0.1139,0.5574 -0.3156,0.7603 -0.2042,0.2055 -0.4748,0.3157 -0.7604,0.3157 l -11.3601,0 c -1.7223,0 -2.5666,0.3056 -3.0013,0.7628 -0.4584,0.4447 -0.8042,1.4118 -0.8894,3.2268 l -0.02,0.2117 15.698,6.8657 c 0.3946,0.1729 0.6488,0.5574 0.6488,0.9871 l 0,0.5925 c -0.004,2.4489 -0.4033,4.3466 -1.6334,5.6932 -1.2451,1.3403 -3.079,1.8113 -5.3387,1.8501 z m 3.5525,-6.5675 -12.9861,-5.677 0,5.33 c 0.0138,1.4693 0.3332,2.1846 0.8932,2.6455 0.5649,0.476 1.6998,0.8142 3.5762,0.8142 l 4.3905,0 c 1.5996,0 2.6142,-0.3281 3.1842,-0.7929 0.5624,-0.4634 0.8818,-1.1073 0.942,-2.2773 0,-0.0137 0,-0.0275 0,-0.0425 z m 30.0656,6.565 -2.1294,0 c -1.8539,0.0125 -3.4673,-0.6526 -4.5747,-1.8627 -1.0948,1.2063 -2.7119,1.8752 -4.5746,1.8627 l -2.1257,0 c -2.0556,0.01 -3.8656,-0.5775 -5.1095,-1.9115 -1.2413,-1.3316 -1.8063,-3.2431 -1.8025,-5.5893 l 0,-15.0253 c 0,-0.2881 0.1102,-0.5561 0.3144,-0.7616 0.2029,-0.2016 0.4735,-0.3156 0.7616,-0.3156 l 1.2627,0 c 0.2831,0 0.5549,0.114 0.7591,0.3156 0.2029,0.2055 0.3156,0.4773 0.3156,0.7616 l 0,15.6141 c 0.1366,2.5867 0.9934,3.3132 3.5775,3.4585 l 2.0468,0 c 0.2268,0 0.5124,-0.0326 0.7253,-0.0877 0.8631,-0.233 1.2113,-0.4873 1.5144,-0.9908 0.3044,-0.5123 0.5136,-1.4756 0.5111,-3.0101 l 0,-14.984 c 0,-0.2881 0.1102,-0.5561 0.3157,-0.7616 0.2016,-0.2016 0.4735,-0.3156 0.7603,-0.3156 l 1.3015,0 c 0.2881,0 0.5574,0.114 0.7629,0.3156 0.2029,0.2055 0.3131,0.4773 0.3131,0.7616 l 0,14.984 c 0.1328,3.0389 0.5261,3.4623 2.1934,4.0059 0.2042,0.0501 0.4772,0.0827 0.7516,0.0827 l 2.053,0 c 2.2861,-0.1215 3.2155,-0.9006 3.3358,-3.4585 l 0,-15.6141 c 0,-0.2881 0.1127,-0.5561 0.3169,-0.7616 0.2029,-0.2016 0.4747,-0.3156 0.7616,-0.3156 l 1.2614,0 c 0.2881,0 0.5587,0.114 0.7628,0.3156 0.2042,0.2055 0.3157,0.4773 0.3157,0.7616 l 0,15.0253 c 0,2.3425 -0.5361,4.2389 -1.7311,5.573 -1.1963,1.3391 -2.9587,1.9378 -4.9467,1.9278 z m 17.4066,-3.9107 c 0.6413,0.4309 0.5036,0.4209 2.5178,0.4584 l 10.3279,0 c 0.2831,0 0.5575,0.1115 0.7604,0.3157 0.2029,0.2029 0.3169,0.4748 0.3169,0.7604 l 0,1.3014 c 0,0.2869 -0.114,0.5562 -0.3169,0.7591 -0.2029,0.2042 -0.4723,0.3182 -0.7604,0.3182 l -10.3693,0 c -3.5487,0.1127 -6.0351,-1.5082 -6.7203,-4.4656 -0.1052,-0.4723 -0.1553,-0.9069 -0.1553,-1.3454 l 0,-1.339 c -0.0113,-1.9065 0.5336,-3.5825 1.8213,-4.6961 1.2827,-1.1074 3.0652,-1.5433 5.2936,-1.547 l 5.0443,0 c 1.1387,-0.004 1.6448,-0.2305 1.9141,-0.5149 0.2843,-0.2856 0.5461,-0.9382 0.595,-2.2008 l 0.0826,-1.0961 c -0.001,-0.1954 -0.004,-0.4196 -0.03,-0.5912 -0.099,-1.0485 -0.367,-1.542 -0.7228,-1.8502 -0.3595,-0.3106 -0.9933,-0.5399 -2.0743,-0.5449 l -10.7652,0 c -0.2856,0 -0.5636,-0.114 -0.7628,-0.3131 -0.2029,-0.2017 -0.3144,-0.4798 -0.3144,-0.7604 l 0,-1.2626 c 0,-0.2894 0.1102,-0.5574 0.3144,-0.7616 0.2029,-0.2029 0.4747,-0.3169 0.7628,-0.3169 l 10.7251,0 c 0.1089,-0.004 0.2154,-0.005 0.3206,-0.005 2.4853,0 4.3078,0.987 5.2799,2.9825 0.5111,0.9069 0.6852,1.9528 0.6802,3.5023 l 0,1.0648 c 0.002,1.8476 -0.4735,3.4347 -1.532,4.5595 -1.0572,1.1287 -2.6055,1.6523 -4.3567,1.6435 l -5.127,0 c -1.6246,-0.006 -2.5754,0.3006 -3.0263,0.6789 -0.4385,0.3683 -0.6915,0.9069 -0.704,2.0669 l 0,1.3415 c 0.003,0.7153 0.3257,1.3654 0.9808,1.8577" /><path
           id="path3377"
           style="fill:#231f20;fill-opacity:1;fill-rule:nonzero;stroke:none"
           d="m 233.939,474.8129 c 3.8268,0.0539 5.7433,-2.1282 5.7433,-6.545 0,-4.4205 -1.8614,-6.6051 -5.5817,-6.5488 l -6.1442,-0.1628 -45.4292,0 -6.1404,0.1628 c -3.7216,-0.0563 -5.5817,2.1283 -5.5817,6.5488 0,4.4168 1.9165,6.5989 5.7433,6.545 l 57.3906,0" /><path
           id="path3379"
           style="fill:#231f20;fill-opacity:1;fill-rule:nonzero;stroke:none"
           d="m 209.3248,434.8352 -6.3822,0 -15.242,-0.0426 c -2.5917,0 -3.8832,-1.5082 -3.8832,-4.5295 l 0,-15.3047 c 0.1616,-4.4719 -2.0079,-6.684 -6.5061,-6.6264 -4.5008,0.0777 -6.7517,2.3149 -6.7517,6.7066 l 0,25.2518 c 0,5.1721 2.2647,7.7613 6.788,7.7613 l 37.9547,0.0451 c 3.8268,0.0551 5.7408,-2.1295 5.7408,-6.55 0,-4.4206 -1.8639,-6.6014 -5.5742,-6.5475 l -6.1441,-0.1641 z" /><path
           id="path3381"
           style="fill:#231f20;fill-opacity:1;fill-rule:nonzero;stroke:none"
           d="m 237.5566,442.2031 0,6.3835 -0.0501,9.0865 c 0,2.5892 -1.5082,3.8832 -4.5245,3.8832 l -2.9826,0 c -4.4719,-0.1628 -6.6815,2.0092 -6.6239,6.5087 0.0802,4.4994 2.3174,6.7479 6.7104,6.7479 l 12.9259,0 c 5.1721,0 7.7613,-2.2622 7.7613,-6.7893 l 0.0463,-31.803 c 0.0514,-3.8256 -2.1332,-5.7396 -6.5525,-5.7396 -4.4193,0 -6.6001,1.8589 -6.5487,5.5767 l -0.1616,6.1454 z" /><path
           id="path3383"
           style="fill:#231f20;fill-opacity:1;fill-rule:nonzero;stroke:none"
           d="m 303.7581,441.4253 c 0,-9.9459 -3.0263,-17.9528 -9.0978,-24.013 -6.059,-6.064 -14.0658,-9.0978 -24.0054,-9.0978 -9.9159,0 -17.9152,3.0388 -23.9917,9.1166 -6.079,6.0753 -9.1217,14.0758 -9.1217,23.9942 l 0,26.5157 c 0,4.3942 2.2535,6.6301 6.7517,6.7128 4.502,0.0539 6.6728,-2.1558 6.5112,-6.6302 l 0,-26.5983 c 0,-8.3801 3.3984,-14.2587 10.1877,-17.6283 3.0163,-1.5082 6.2381,-2.2635 9.6628,-2.2635 7.6523,0 13.3492,3.0188 17.0946,9.0527 1.8602,2.9951 2.7007,6.6866 2.5065,11.0783 l 0,26.3591 c -0.1578,4.4744 2.013,6.6841 6.5137,6.6302 4.4995,-0.0827 6.7467,-2.3186 6.7467,-6.7128 l 0.1641,-1.6973 0.0776,-24.8184" /><path
           id="path3385"
           style="fill:#231f20;fill-opacity:1;fill-rule:nonzero;stroke:none"
           d="m 359.2197,448.0943 c 4.7174,0.1064 9.3834,-1.517 14.0069,-4.8703 4.626,-3.3595 6.9308,-8.3099 6.9308,-14.8599 0,-4.3091 -1.0334,-7.9618 -3.109,-10.9518 -4.1725,-5.9299 -12.0641,-8.8937 -23.6485,-8.8937 l -33.3914,0 c -4.046,-0.0551 -6.064,2.1283 -6.064,6.5488 0,4.4205 1.9166,6.6552 5.7421,6.7116 l 33.8737,0 c 4.2026,-0.0276 7.274,0.253 9.2206,0.8468 1.6397,0.5123 2.7495,1.1574 3.3069,1.9403 0.5687,0.7816 0.8543,2.048 0.8543,3.798 0,1.458 -0.2142,2.6292 -0.6488,3.5186 -0.9996,2.0781 -3.3508,3.1141 -7.0736,3.1141 l -24.3362,-0.0426 c -4.7186,-0.1053 -9.3872,1.5194 -14.0019,4.8727 -4.6259,3.3558 -6.9371,8.3087 -6.9371,14.8575 0,4.3128 1.0347,7.9642 3.1091,10.9555 4.1788,5.9262 11.9664,8.8949 23.3691,8.8949 l 30.9224,0.119 2.5917,0 c 4.036,0.1591 6.0603,-1.9691 6.0603,-6.3859 0,-4.4205 -1.8577,-6.6051 -5.5805,-6.5488 l -34.1167,0 c -4.0397,-0.268 -7.031,-0.7027 -8.9688,-1.2939 -1.6497,-0.5161 -2.7533,-1.16 -3.3157,-1.9403 -0.5725,-0.7842 -0.8518,-2.0506 -0.8518,-3.8005 0,-1.4581 0.2117,-2.6293 0.6451,-3.5174 0.9996,-2.0756 3.352,-3.1153 7.0748,-3.1153 l 10.1063,0.0839 14.2299,-0.0413" /><path
           id="path3387"
           style="fill:#231f20;fill-opacity:1;fill-rule:nonzero;stroke:none"
           d="m 390.1384,451.6918 0,16.2492 c 0,4.3942 2.2572,6.6301 6.7592,6.7128 4.4969,0.0539 6.669,-2.1558 6.5074,-6.6302 l 0,-52.9988 c 0.1616,-4.4744 -2.0105,-6.6815 -6.5074,-6.6302 -4.502,0.0839 -6.7592,2.3186 -6.7592,6.7141 l 0,36.5831" /><path
           id="path3389"
           style="fill:#231f20;fill-opacity:1;fill-rule:nonzero;stroke:none"
           d="m 574.0998,459.2903 -0.1603,-44.9519 c 0.1102,-3.9346 -1.9366,-5.8749 -6.1416,-5.8198 l -3.5588,0 c -2.2597,-0.0551 -4.1612,0.7003 -5.702,2.261 l -32.4569,33.9564 c -3.2368,2.752 -4.8502,2.7257 -4.8502,-0.0789 l 0,-8.0745 c 0.1579,-4.4757 -2.0117,-6.6853 -6.5099,-6.6314 -4.5045,0.0814 -6.7504,2.3186 -6.7504,6.7116 l 0,32.9767 c 0,3.2606 1.5094,4.9855 4.527,5.1734 l 3.2368,0 c 2.0443,-0.1591 3.9257,-1.061 5.6544,-2.7082 l 35.0912,-37.7142 c 2.9061,-1.671 4.3666,-1.0009 4.3666,2.0192 l 0,31.6139 c -0.2668,4.4744 1.8427,6.6841 6.3446,6.6302 4.502,-0.0827 6.8056,-2.2384 6.9095,-6.4673 l 0,-8.8962" /><path
           id="path3391"
           style="fill:#231f20;fill-opacity:1;fill-rule:nonzero;stroke:none"
           d="m 445.0863,444.6971 c 0.004,6.3521 5.1496,11.5055 11.5054,11.5055 6.3484,-0.004 11.4954,-5.1496 11.4954,-11.503 0,-6.3508 -5.147,-11.5041 -11.4954,-11.5041 -6.3558,0 -11.5016,5.1533 -11.5054,11.5016" /><path
           id="path3393"
           style="fill:#231f20;fill-opacity:1;fill-rule:nonzero;stroke:none"
           d="m 427.9754,473.3022 c 15.8057,15.7957 41.4107,15.7982 57.2139,-0.005 15.7894,-15.7957 15.7894,-41.402 0,-57.2039 -15.7969,-15.7882 -41.4057,-15.7857 -57.2027,0.004 -15.8019,15.8057 -15.7994,41.4082 -0.0112,57.2051 z m 8.7108,-8.7045 c -10.9681,-11.0044 -10.9718,-28.778 0.005,-39.7949 11.0093,-10.968 28.7842,-10.9655 39.7835,-10e-4 10.9706,11.0069 10.9794,28.783 0.0101,39.7898 -11.0194,10.9781 -28.7955,10.9743 -39.7986,0.006" /><path
           id="path3395"
           style="fill:#231f20;fill-opacity:1;fill-rule:nonzero;stroke:none"
           d="m 456.5491,445.5063 -0.4534,10.2015 0.496,0.4948 c -3.4209,0 -7.2602,-0.2005 -10.4908,3.0338 -5.355,5.3538 -1.9152,10.4896 1.904,12.2508 -3.5199,0 -8.4014,-1.4318 -11.4778,-2.469 l -0.8543,1.0059 c 0,0 -0.3132,-0.6038 -0.7767,-1.5721 -0.7916,-0.2918 -1.2801,-0.481 -1.2801,-0.481 l 0.714,-0.7252 c -1.6823,-3.6414 -4.3542,-10.0098 -4.3517,-13.7878 1.7625,3.8181 6.9008,7.2615 12.2495,1.9091 3.2318,-3.2331 3.0351,-7.0737 3.0351,-10.4921 l 0.4936,0.4935 13.1902,-2.6706 -2.3976,2.8084" /><path
           id="path3397"
           style="fill:#231f20;fill-opacity:1;fill-rule:nonzero;stroke:none"
           d="m 587.2525,466.399 c 0.5223,0.1503 0.9457,0.4522 1.2827,0.9031 0.3282,0.4673 0.4948,0.9733 0.4948,1.5195 0,0.8129 -0.317,1.4693 -0.9307,1.9716 -0.56,0.4322 -1.4506,0.6489 -2.6744,0.6489 l -1.7424,0 0,-8.7334 1.6685,0 0,3.4598 2.5942,-3.4598 2.0355,0 -2.8334,3.6502 0.1052,0.0401 z m -1.6259,1.1699 -0.2806,0 0,2.385 0.3307,0 c 1.1624,0 1.7399,-0.3833 1.7399,-1.1486 0,-0.8242 -0.5975,-1.2364 -1.79,-1.2364 z m 0.9269,7.0849 c -4.1825,0 -7.5696,-3.3896 -7.5696,-7.5709 0,-4.185 3.3871,-7.5759 7.5696,-7.5759 4.185,0 7.5747,3.3909 7.5747,7.5759 0,4.1813 -3.3897,7.5709 -7.5747,7.5709 z m 0,-13.8403 c -3.4648,0 -6.2644,2.8084 -6.2644,6.2694 0,3.4585 2.7996,6.2632 6.2644,6.2632 3.4623,0 6.2632,-2.8047 6.2632,-6.2632 0,-3.461 -2.8009,-6.2694 -6.2632,-6.2694" /><path
           id="path3399"
           style="fill:#656263;fill-opacity:1;fill-rule:nonzero;stroke:none"
           d="m 98.47688,444.2023 c 4.39302,0 6.63022,2.2498 6.71032,6.753 0.0539,4.5007 -2.1545,6.669 -6.62639,6.5062 l -9.73169,0 c -12.54386,0 -17.42536,-7.1613 -17.42536,-17.7699 l 0,-24.5829 c 0,-4.3955 2.24847,-6.6302 6.74918,-6.7141 4.50195,-0.0513 6.67277,2.1558 6.50992,6.6302 l 0,24.3286 c 0,3.2356 1.50817,4.8527 4.52952,4.8527 l 9.2845,-0.004" /><path
           id="path3401"
           style="fill:#656263;fill-opacity:1;fill-rule:nonzero;stroke:none"
           d="m 18.14813,435.3237 c -3.01634,0 -4.52701,-1.6172 -4.52701,-4.8502 l 0,-15.4487 c 0.16033,-4.4744 -2.01048,-6.6815 -6.508678,-6.6302 -4.500705,0.0839 -6.7491788,2.3186 -6.7491788,6.7141 l 0,25.0664 c 0,5.4728 2.4777048,8.2737 7.4343688,8.4052 l 30.912438,0 c 4.20384,0.1102 7.27529,0.4597 9.21687,1.0572 1.6447,0.5073 2.74952,1.1549 3.31571,1.9378 0.56744,0.7829 0.84678,2.0481 0.84678,3.7993 0,1.4543 -0.21545,2.6292 -0.64636,3.5149 -0.99584,2.0793 -3.35454,3.1152 -7.07361,3.1152 L 7.112442,461.9258 c -4.500705,0.0789 -6.7491788,2.3174 -6.7491788,6.7091 0,4.4206 2.3449258,6.5763 7.0335258,6.4674 l 36.972671,0 c 4.71491,0.1089 9.38472,-1.5157 14.00818,-4.8703 4.62096,-3.357 6.93207,-8.3062 6.93207,-14.8574 0,-4.3116 -1.03844,-7.9643 -3.11279,-10.9543 -4.17628,-5.9274 -11.95261,-8.9588 -23.32526,-9.0966 l -20.72353,0" /><path
           id="path3403"
           style="fill:#656263;fill-opacity:1;fill-rule:nonzero;stroke:none"
           d="m 134.2934,406.6021 c 14.5267,0.002 26.289,11.766 26.2927,26.2915 -0.004,14.523 -11.766,26.2877 -26.2927,26.2902 -14.5168,-0.002 -26.284,-11.7672 -26.2903,-26.2902 0.006,-14.5255 11.7735,-26.289 26.2903,-26.2927 l 0,10e-4 z m -15.5051,26.2915 c 0.0125,8.563 6.9433,15.495 15.5051,15.5101 8.5667,-0.0151 15.4963,-6.9471 15.5151,-15.5101 -0.0188,-8.563 -6.9484,-15.4951 -15.5151,-15.5113 -8.5618,0.0162 -15.4926,6.9483 -15.5051,15.5113 z m 22.511,-0.002 c 0,3.8706 -3.1353,7.0072 -7.0059,7.0072 -3.8669,0 -7.006,-3.1366 -7.006,-7.0072 0,-3.8694 3.1391,-7.0047 7.006,-7.0047 3.8706,0 7.0059,3.1353 7.0059,7.0047" /></g></g></g></svg>