<?xml version="1.0" encoding="UTF-8" standalone="no"?>
<svg
   xmlns:dc="http://purl.org/dc/elements/1.1/"
   xmlns:cc="http://creativecommons.org/ns#"
   xmlns:rdf="http://www.w3.org/1999/02/22-rdf-syntax-ns#"
   xmlns:svg="http://www.w3.org/2000/svg"
   xmlns="http://www.w3.org/2000/svg"
   viewBox="0 0 817.33331 193.33333"
   height="193.33333"
   width="817.33331"
   xml:space="preserve"
   id="svg2"
   version="1.1"><metadata
     id="metadata8"><rdf:RDF><cc:Work
         rdf:about=""><dc:format>image/svg+xml</dc:format><dc:type
           rdf:resource="http://purl.org/dc/dcmitype/StillImage" /></cc:Work></rdf:RDF></metadata><defs
     id="defs6" /><g
     transform="matrix(1.3333333,0,0,-1.3333333,0,193.33333)"
     id="g10"><g
       transform="scale(0.1)"
       id="g12"><path
         id="path14"
         style="fill:#ed1c33;fill-opacity:1;fill-rule:nonzero;stroke:none"
         d="m 1600.23,729.313 c 17.26,-81.915 17.26,-90.54 17.26,-101.317 0,-140.129 -157.39,-217.726 -364.31,-217.726 -467.821,0 -877.387,273.769 -877.387,454.851 0,28.043 6.465,53.895 15.086,73.293 C 222.727,929.789 5,899.617 5,707.758 5,393.031 750.891,5 1341.55,5 c 452.71,0 566.94,204.781 566.94,366.461 0,127.207 -109.93,271.609 -308.26,357.852 M 1274.72,615.055 c 125.05,0 306.11,25.879 306.11,174.617 0,11.605 -0.32,22.902 -3.1,34.223 l -74.48,323.625 c -17.27,71.13 -32.35,103.48 -157.38,166 -97.02,49.57 -308.27,131.48 -370.792,131.48 -58.203,0 -75.433,-75.43 -144.43,-75.43 -66.816,0 -116.402,56.03 -178.914,56.03 -60.347,0 -99.171,-40.95 -129.347,-125.03 0,0 -84.082,-237.12 -94.86,-271.59 -2.152,-6.48 -2.218,-13.75 -2.218,-19.43 0,-92.155 362.949,-394.495 849.411,-394.495" /><path
         id="path16"
         style="fill:#100f0d;fill-opacity:1;fill-rule:nonzero;stroke:none"
         d="m 1600.23,729.313 c 17.26,-81.915 17.26,-90.54 17.26,-101.317 0,-140.129 -157.39,-217.726 -364.31,-217.726 -467.821,0 -877.387,273.769 -877.387,454.851 0,28.043 6.465,53.895 15.086,73.293 l 36.648,90.566 c -2.152,-6.48 -2.218,-13.75 -2.218,-19.43 0,-92.155 362.949,-394.495 849.411,-394.495 125.05,0 306.11,25.879 306.11,174.617 0,11.605 -0.32,22.902 -3.1,34.223 l 22.5,-94.582" /><path
         id="path18"
         style="fill:#100f0d;fill-opacity:1;fill-rule:nonzero;stroke:none"
         d="m 2260.18,352.641 h 180.88 v 268.175 h 137.78 l 138.82,-268.175 h 201.92 l -161.96,294.464 c 87.29,37.86 138.83,116.739 138.83,207.18 0,132.512 -104.12,234.525 -259.77,234.525 h -376.5 z m 359.67,581.574 c 59.95,0 93.6,-37.863 93.6,-83.082 0,-45.227 -33.65,-83.086 -93.6,-83.086 h -178.79 v 166.168 z m 293.41,-303.938 c 0,-161.957 132.51,-288.156 302.88,-288.156 93.6,0 161.96,25.238 232.42,84.129 l -112.52,99.91 c -26.3,-27.344 -65.21,-42.062 -111.48,-42.062 -63.1,0 -114.64,34.703 -136.72,88.34 h 396.48 v 42.066 c 0,176.684 -118.84,303.934 -280.79,303.934 -163.02,0 -290.27,-126.204 -290.27,-288.161 m 287.11,149.34 c 53.63,0 98.86,-34.707 116.73,-88.344 h -232.42 c 16.83,55.743 58.9,88.344 115.69,88.344 m 771.92,-426.976 h 168.27 v 772.979 l -170.37,-36.81 V 879.527 c -42.07,24.188 -90.45,36.813 -141.98,36.813 -161.96,0 -289.21,-125.152 -289.21,-285.012 0,-159.851 125.15,-286.058 283.95,-286.058 54.69,0 106.22,16.832 149.34,48.378 z m -266.07,278.687 c 0,79.934 63.1,140.93 146.18,140.93 46.27,0 88.34,-15.778 117.79,-43.121 V 534.574 c -30.5,-29.445 -70.46,-44.168 -117.79,-44.168 -82.03,0 -146.18,60.996 -146.18,140.922 M 4395.5,352.641 h 180.9 v 288.156 h 302.88 V 352.641 h 180.89 V 1088.81 H 4879.28 V 805.906 H 4576.4 v 282.904 h -180.9 z m 924.43,-9.469 c 59.95,0 108.33,12.617 153.55,43.117 v -33.648 h 168.27 v 356.515 c 0,135.664 -91.5,210.336 -243.99,210.336 -85.19,0 -169.32,-19.984 -259.77,-61 l 61,-125.148 c 65.2,27.344 119.89,44.172 168.27,44.172 70.46,0 106.22,-27.344 106.22,-83.086 v -27.344 c -39.96,10.516 -82.03,15.773 -126.2,15.773 -143.03,0 -229.27,-59.945 -229.27,-167.214 0,-97.805 77.82,-172.473 201.92,-172.473 m -51.98,175.629 c 0,36.808 36.81,54.683 92.55,54.683 36.8,0 70.46,-5.257 100.96,-12.617 v -71.515 c -31.55,-17.875 -68.36,-26.289 -106.22,-26.289 -54.69,0 -87.29,21.035 -87.29,55.738 m 529.43,3.152 c 0,-118.832 71.53,-176.683 201.93,-176.683 31.56,0 86.24,7.371 118.85,16.832 v 137.765 c -28.39,-8.414 -49.43,-11.566 -76.78,-11.566 -53.64,0 -73.61,16.828 -73.61,67.308 v 211.387 h 155.64 V 908.977 H 5967.77 V 1088.81 L 5797.38,1052 V 908.977 H 5684.85 V 766.996 h 112.53 V 521.953" /></g></g></svg>