<?xml version="1.0" encoding="UTF-8" standalone="no"?>
<!-- Created with Inkscape (http://www.inkscape.org/) -->

<svg
   xmlns:dc="http://purl.org/dc/elements/1.1/"
   xmlns:cc="http://creativecommons.org/ns#"
   xmlns:rdf="http://www.w3.org/1999/02/22-rdf-syntax-ns#"
   xmlns:svg="http://www.w3.org/2000/svg"
   xmlns="http://www.w3.org/2000/svg"
   xmlns:sodipodi="http://sodipodi.sourceforge.net/DTD/sodipodi-0.dtd"
   xmlns:inkscape="http://www.inkscape.org/namespaces/inkscape"
   version="1.1"
   id="svg2"
   xml:space="preserve"
   width="149.33333"
   height="74.666664"
   viewBox="0 0 149.33333 74.666664"
   sodipodi:docname="vulcanet.svg"
   inkscape:version="0.92.2 (5c3e80d, 2017-08-06)"><metadata
     id="metadata8"><rdf:RDF><cc:Work
         rdf:about=""><dc:format>image/svg+xml</dc:format><dc:type
           rdf:resource="http://purl.org/dc/dcmitype/StillImage" /><dc:title></dc:title></cc:Work></rdf:RDF></metadata><defs
     id="defs6"><clipPath
       clipPathUnits="userSpaceOnUse"
       id="clipPath18"><path
         d="M 0,56 H 112 V 0 H 0 Z"
         id="path16"
         inkscape:connector-curvature="0" /></clipPath></defs><sodipodi:namedview
     pagecolor="#ffffff"
     bordercolor="#666666"
     borderopacity="1"
     objecttolerance="10"
     gridtolerance="10"
     guidetolerance="10"
     inkscape:pageopacity="0"
     inkscape:pageshadow="2"
     inkscape:window-width="848"
     inkscape:window-height="480"
     id="namedview4"
     showgrid="false"
     inkscape:zoom="2.0892858"
     inkscape:cx="74.666664"
     inkscape:cy="37.333332"
     inkscape:window-x="630"
     inkscape:window-y="68"
     inkscape:window-maximized="0"
     inkscape:current-layer="g10" /><g
     id="g10"
     inkscape:groupmode="layer"
     inkscape:label="vulcanet"
     transform="matrix(1.3333333,0,0,-1.3333333,0,74.666667)"><g
       id="g12"><g
         id="g14"
         clip-path="url(#clipPath18)"><g
           id="g20"
           transform="translate(72.9478,8.4146)"><path
             d="m 0,0 c -0.291,-0.175 -0.545,-0.273 -0.688,-0.344 -0.149,-0.033 -0.763,-0.272 -1.887,-0.682 -0.87,-0.306 -1.487,-0.682 -1.809,-1.162 -0.366,-0.443 -0.548,-0.955 -0.548,-1.538 0,-0.611 0.22,-1.126 0.58,-1.539 0.402,-0.372 0.907,-0.577 1.523,-0.577 0.98,0 1.742,0.374 2.323,1.126 C -0.145,-4.204 0,-3.692 0,-3.143 Z m 0.108,-5.57 c -0.506,-0.579 -0.978,-0.99 -1.414,-1.194 -0.761,-0.444 -1.595,-0.651 -2.572,-0.651 -0.98,0 -1.778,0.273 -2.358,0.818 -0.761,0.651 -1.122,1.54 -1.122,2.635 0,1.331 0.543,2.287 1.594,2.936 0.436,0.306 0.87,0.512 1.306,0.649 0.396,0.172 1.342,0.446 2.79,0.853 0.615,0.172 1.053,0.377 1.305,0.649 C -0.11,1.366 0,1.709 0,2.151 0,2.664 -0.216,3.073 -0.615,3.417 -1.053,3.724 -1.631,3.896 -2.319,3.896 -2.936,3.896 -3.445,3.789 -3.914,3.619 -4.384,3.417 -4.968,3.108 -5.656,2.595 l -0.398,1.537 c 0.87,0.41 1.631,0.651 2.248,0.787 0.651,0.171 1.377,0.241 2.175,0.241 1.34,0 2.356,-0.241 3.081,-0.755 0.724,-0.477 1.087,-1.161 1.087,-2.05 v -7.14 c 0,-0.716 0.214,-1.057 0.725,-1.057 0.217,0 0.508,0.136 0.833,0.374 V -6.802 C 3.441,-7.208 2.827,-7.415 2.213,-7.415 c -0.617,0 -1.09,0.136 -1.417,0.412 -0.288,0.271 -0.541,0.75 -0.688,1.433 m -8.7,-0.955 c -0.941,-0.377 -1.594,-0.617 -2.03,-0.718 -0.399,-0.103 -0.906,-0.172 -1.594,-0.172 -1.778,0 -3.19,0.547 -4.17,1.608 -1.087,1.127 -1.593,2.629 -1.593,4.51 0,2.186 0.651,3.858 1.993,5.021 1.086,0.956 2.539,1.436 4.313,1.436 0.979,0 1.995,-0.172 3.081,-0.515 V 2.869 c -0.579,0.443 -1.086,0.75 -1.522,0.92 -0.401,0.173 -0.869,0.241 -1.414,0.241 -1.161,0 -2.066,-0.444 -2.719,-1.366 -0.688,-0.955 -1.047,-2.22 -1.047,-3.791 0,-1.366 0.286,-2.526 0.794,-3.451 0.615,-1.059 1.559,-1.604 2.827,-1.604 0.58,0 1.089,0.097 1.523,0.307 0.472,0.205 0.979,0.51 1.558,0.988 z M -20.482,9.462 C -20.556,9.258 -20.556,8.984 -20.556,8.709 V -6.425 c 0,-0.271 0,-0.513 0.074,-0.748 h -2.682 c 0.036,0.235 0.073,0.477 0.073,0.748 V 8.709 c 0,0.275 -0.037,0.515 -0.073,0.753 z m -8.301,-16.635 v 1.638 c -0.469,-0.582 -0.907,-1.025 -1.341,-1.267 -0.649,-0.406 -1.486,-0.613 -2.501,-0.613 -1.378,0 -2.429,0.376 -3.154,1.095 -0.615,0.614 -0.943,1.501 -0.943,2.628 v 7.824 c 0,0.241 -0.035,0.513 -0.072,0.752 h 2.682 C -34.184,4.645 -34.22,4.405 -34.22,4.132 v -7.551 c 0,-0.647 0.183,-1.159 0.509,-1.569 0.436,-0.48 1.086,-0.718 1.959,-0.718 0.865,0 1.556,0.238 2.101,0.685 0.543,0.476 0.833,1.092 0.833,1.843 v 7.31 c 0,0.273 -0.037,0.513 -0.109,0.752 h 2.682 C -26.282,4.68 -26.319,4.44 -26.319,4.132 V -6.425 c 0,-0.238 0.037,-0.513 0.074,-0.748 z m -14.353,2.628 3.481,8.745 c 0.07,0.275 0.142,0.48 0.142,0.684 h 1.45 C -38.206,4.645 -38.354,4.44 -38.425,4.2 l -4.242,-10.725 c -0.108,-0.277 -0.181,-0.478 -0.181,-0.617 v -0.031 h -1.993 c -0.035,0.2 -0.107,0.409 -0.18,0.648 L -49.19,4.2 c -0.072,0.173 -0.18,0.376 -0.327,0.684 h 2.937 c 0,-0.239 0.036,-0.444 0.107,-0.684 z"
             style="fill:#6589c6;fill-opacity:1;fill-rule:evenodd;stroke:none"
             id="path22"
             inkscape:connector-curvature="0" /></g><g
           id="g24"
           transform="translate(105.9341,12.1724)"><path
             d="M 0,0 H -1.924 V 1.126 H 0 V 3.45 L 2.537,3.688 C 2.502,3.244 2.502,2.973 2.502,2.801 V 1.126 H 4.568 V 0 H 2.502 v -8.713 c 0,-0.715 0.326,-1.091 0.943,-1.091 0.287,0 0.686,0.132 1.161,0.376 v -1.268 c -0.691,-0.305 -1.416,-0.476 -2.177,-0.476 -0.834,0 -1.449,0.206 -1.848,0.584 C 0.181,-10.183 0,-9.6 0,-8.779 Z m -11.344,-3.419 h 6.088 c -0.036,0.686 -0.145,1.232 -0.29,1.674 -0.218,0.651 -0.579,1.164 -1.124,1.541 -0.433,0.342 -0.942,0.476 -1.561,0.476 -0.867,0 -1.558,-0.306 -2.101,-0.957 -0.579,-0.647 -0.904,-1.57 -1.012,-2.734 m 8.154,-6.727 c -0.834,-0.376 -1.558,-0.651 -2.174,-0.785 -0.616,-0.141 -1.378,-0.241 -2.211,-0.241 -2.175,0 -3.844,0.612 -4.966,1.81 -1.014,1.059 -1.524,2.528 -1.524,4.372 0,2.052 0.58,3.658 1.739,4.786 1.053,1.057 2.466,1.606 4.244,1.606 1.702,0 3.045,-0.515 3.984,-1.541 0.942,-0.987 1.452,-2.457 1.526,-4.339 h -8.883 c 0,-1.331 0.182,-2.391 0.472,-3.175 0.618,-1.573 1.847,-2.358 3.733,-2.358 1.305,0 2.538,0.447 3.697,1.401 z M -27.186,1.126 h 2.536 v -1.707 c 0.399,0.581 0.765,0.989 1.161,1.263 0.727,0.48 1.667,0.72 2.79,0.72 1.449,0 2.576,-0.415 3.335,-1.264 0.472,-0.551 0.689,-1.264 0.689,-2.224 v -8.097 c 0,-0.271 0.036,-0.513 0.109,-0.748 h -2.684 c 0.039,0.17 0.076,0.409 0.076,0.748 v 7.721 c 0,0.684 -0.22,1.232 -0.616,1.606 -0.436,0.378 -1.053,0.546 -1.815,0.546 -0.978,0 -1.704,-0.238 -2.212,-0.749 -0.506,-0.547 -0.797,-1.232 -0.797,-2.085 v -7.039 c 0,-0.271 0.039,-0.513 0.11,-0.748 h -2.682 c 0.035,0.2 0.072,0.441 0.072,0.748 V 0.374 c 0,0.241 -0.037,0.513 -0.072,0.752"
             style="fill:#f68530;fill-opacity:1;fill-rule:evenodd;stroke:none"
             id="path26"
             inkscape:connector-curvature="0" /></g><g
           id="g28"
           transform="translate(22.2051,52.2319)"><path
             d="m 0,0 c 4.578,-1.636 7.847,-5.815 7.847,-10.691 0,-6.292 -5.447,-11.454 -12.126,-11.454 -6.708,0 -12.155,5.162 -12.155,11.454 0,2.716 1.014,5.217 2.708,7.182 -4.267,-3.151 -7.019,-8.047 -7.019,-13.533 0,-9.483 8.218,-17.227 18.281,-17.227 10.065,0 18.25,7.744 18.25,17.227 C 15.786,-8.345 8.901,-1.137 0,0"
             style="fill:#f68530;fill-opacity:1;fill-rule:evenodd;stroke:none"
             id="path30"
             inkscape:connector-curvature="0" /></g><g
           id="g32"
           transform="translate(14.2637,37.5107)"><path
             d="M 0,0 -5.325,8.758 -10.71,17.489 0,17.431 10.709,17.489 5.292,8.758 Z"
             style="fill:#6589c6;fill-opacity:1;fill-rule:evenodd;stroke:none"
             id="path34"
             inkscape:connector-curvature="0" /></g></g></g></g></svg>